<svg xmlns="http://www.w3.org/2000/svg" xmlns:xlink="http://www.w3.org/1999/xlink" width="256" zoomAndPan="magnify" viewBox="0 0 192 191.999996" height="256" preserveAspectRatio="xMidYMid meet" version="1.0"><path fill="#984b67" d="M 96.222656 192.277344 C 97.792969 192.277344 99.363281 192.238281 100.933594 192.160156 C 102.503906 192.082031 104.070312 191.96875 105.636719 191.8125 C 107.199219 191.660156 108.761719 191.464844 110.316406 191.234375 C 111.871094 191.003906 113.417969 190.738281 114.960938 190.429688 C 116.503906 190.125 118.035156 189.777344 119.5625 189.398438 C 121.085938 189.015625 122.601562 188.59375 124.105469 188.140625 C 125.609375 187.683594 127.101562 187.191406 128.582031 186.660156 C 130.0625 186.132812 131.527344 185.566406 132.980469 184.964844 C 134.433594 184.363281 135.867188 183.726562 137.289062 183.054688 C 138.710938 182.382812 140.113281 181.675781 141.5 180.933594 C 142.886719 180.191406 144.253906 179.417969 145.601562 178.609375 C 146.953125 177.800781 148.277344 176.960938 149.585938 176.085938 C 150.894531 175.214844 152.179688 174.308594 153.441406 173.371094 C 154.703125 172.4375 155.941406 171.46875 157.15625 170.472656 C 158.371094 169.476562 159.5625 168.449219 160.726562 167.394531 C 161.890625 166.335938 163.03125 165.253906 164.140625 164.140625 C 165.253906 163.03125 166.335938 161.890625 167.394531 160.726562 C 168.449219 159.5625 169.476562 158.371094 170.472656 157.15625 C 171.46875 155.941406 172.4375 154.703125 173.371094 153.441406 C 174.308594 152.179688 175.214844 150.894531 176.085938 149.585938 C 176.960938 148.277344 177.800781 146.953125 178.609375 145.601562 C 179.417969 144.253906 180.191406 142.886719 180.933594 141.5 C 181.675781 140.113281 182.382812 138.710938 183.054688 137.289062 C 183.726562 135.867188 184.363281 134.433594 184.964844 132.980469 C 185.566406 131.527344 186.132812 130.0625 186.660156 128.582031 C 187.191406 127.101562 187.683594 125.609375 188.140625 124.105469 C 188.59375 122.601562 189.015625 121.085938 189.398438 119.5625 C 189.777344 118.035156 190.125 116.503906 190.429688 114.960938 C 190.738281 113.417969 191.003906 111.871094 191.234375 110.316406 C 191.464844 108.761719 191.660156 107.199219 191.8125 105.636719 C 191.96875 104.070312 192.082031 102.503906 192.160156 100.933594 C 192.238281 99.363281 192.277344 97.792969 192.277344 96.222656 C 192.277344 94.648438 192.238281 93.078125 192.160156 91.507812 C 192.082031 89.9375 191.96875 88.371094 191.8125 86.808594 C 191.660156 85.242188 191.464844 83.683594 191.234375 82.128906 C 191.003906 80.574219 190.738281 79.023438 190.429688 77.484375 C 190.125 75.941406 189.777344 74.40625 189.398438 72.882812 C 189.015625 71.359375 188.59375 69.84375 188.140625 68.339844 C 187.683594 66.835938 187.191406 65.34375 186.660156 63.863281 C 186.132812 62.382812 185.566406 60.914062 184.964844 59.464844 C 184.363281 58.011719 183.726562 56.574219 183.054688 55.152344 C 182.382812 53.730469 181.675781 52.328125 180.933594 50.941406 C 180.191406 49.554688 179.417969 48.1875 178.609375 46.839844 C 177.800781 45.492188 176.960938 44.164062 176.085938 42.855469 C 175.214844 41.550781 174.308594 40.265625 173.371094 39.003906 C 172.4375 37.738281 171.46875 36.5 170.472656 35.285156 C 169.476562 34.070312 168.449219 32.878906 167.394531 31.714844 C 166.335938 30.550781 165.253906 29.414062 164.140625 28.300781 C 163.03125 27.191406 161.890625 26.105469 160.726562 25.050781 C 159.5625 23.996094 158.371094 22.96875 157.15625 21.972656 C 155.941406 20.972656 154.703125 20.007812 153.441406 19.070312 C 152.179688 18.132812 150.894531 17.230469 149.585938 16.355469 C 148.277344 15.484375 146.953125 14.640625 145.601562 13.832031 C 144.253906 13.027344 142.886719 12.25 141.5 11.511719 C 140.113281 10.769531 138.710938 10.0625 137.289062 9.390625 C 135.867188 8.71875 134.433594 8.082031 132.980469 7.480469 C 131.527344 6.878906 130.0625 6.3125 128.582031 5.78125 C 127.101562 5.253906 125.609375 4.761719 124.105469 4.304688 C 122.601562 3.847656 121.085938 3.429688 119.5625 3.046875 C 118.035156 2.664062 116.503906 2.320312 114.960938 2.011719 C 113.417969 1.707031 111.871094 1.4375 110.316406 1.207031 C 108.761719 0.976562 107.199219 0.785156 105.636719 0.628906 C 104.070312 0.476562 102.503906 0.359375 100.933594 0.285156 C 99.363281 0.207031 97.792969 0.167969 96.222656 0.167969 C 94.648438 0.167969 93.078125 0.207031 91.507812 0.285156 C 89.9375 0.359375 88.371094 0.476562 86.808594 0.628906 C 85.242188 0.785156 83.683594 0.976562 82.128906 1.207031 C 80.574219 1.4375 79.023438 1.707031 77.484375 2.011719 C 75.941406 2.320312 74.40625 2.664062 72.882812 3.046875 C 71.359375 3.429688 69.84375 3.847656 68.339844 4.304688 C 66.835938 4.761719 65.34375 5.253906 63.863281 5.78125 C 62.382812 6.3125 60.914062 6.878906 59.464844 7.480469 C 58.011719 8.082031 56.574219 8.71875 55.152344 9.390625 C 53.730469 10.0625 52.328125 10.769531 50.941406 11.511719 C 49.554688 12.25 48.1875 13.027344 46.839844 13.832031 C 45.492188 14.640625 44.164062 15.484375 42.855469 16.355469 C 41.550781 17.230469 40.265625 18.132812 39.003906 19.070312 C 37.738281 20.007812 36.5 20.972656 35.285156 21.972656 C 34.070312 22.96875 32.878906 23.996094 31.714844 25.050781 C 30.550781 26.105469 29.414062 27.191406 28.300781 28.300781 C 27.191406 29.414062 26.105469 30.550781 25.050781 31.714844 C 23.996094 32.878906 22.96875 34.070312 21.972656 35.285156 C 20.972656 36.5 20.007812 37.738281 19.070312 39.003906 C 18.132812 40.265625 17.230469 41.550781 16.355469 42.855469 C 15.484375 44.164062 14.640625 45.492188 13.832031 46.839844 C 13.027344 48.1875 12.25 49.554688 11.511719 50.941406 C 10.769531 52.328125 10.0625 53.730469 9.390625 55.152344 C 8.71875 56.574219 8.082031 58.011719 7.480469 59.464844 C 6.878906 60.914062 6.3125 62.382812 5.78125 63.863281 C 5.253906 65.34375 4.761719 66.835938 4.304688 68.339844 C 3.847656 69.84375 3.429688 71.359375 3.046875 72.882812 C 2.664062 74.40625 2.320312 75.941406 2.011719 77.484375 C 1.707031 79.023438 1.4375 80.574219 1.207031 82.128906 C 0.976562 83.683594 0.785156 85.242188 0.628906 86.808594 C 0.476562 88.371094 0.359375 89.9375 0.285156 91.507812 C 0.207031 93.078125 0.167969 94.648438 0.167969 96.222656 C 0.167969 97.792969 0.210938 99.363281 0.289062 100.933594 C 0.367188 102.503906 0.484375 104.070312 0.640625 105.632812 C 0.796875 107.195312 0.988281 108.757812 1.222656 110.308594 C 1.453125 111.863281 1.722656 113.414062 2.03125 114.953125 C 2.339844 116.496094 2.683594 118.027344 3.066406 119.550781 C 3.453125 121.074219 3.871094 122.589844 4.328125 124.09375 C 4.785156 125.597656 5.28125 127.085938 5.808594 128.566406 C 6.339844 130.046875 6.90625 131.511719 7.507812 132.960938 C 8.109375 134.414062 8.75 135.851562 9.421875 137.269531 C 10.09375 138.691406 10.800781 140.09375 11.542969 141.480469 C 12.285156 142.863281 13.058594 144.230469 13.867188 145.578125 C 14.675781 146.925781 15.515625 148.253906 16.390625 149.558594 C 17.261719 150.867188 18.167969 152.152344 19.105469 153.414062 C 20.039062 154.675781 21.007812 155.914062 22.003906 157.128906 C 23 158.34375 24.027344 159.53125 25.082031 160.695312 C 26.140625 161.859375 27.222656 163 28.332031 164.109375 C 29.445312 165.222656 30.582031 166.304688 31.746094 167.359375 C 32.910156 168.414062 34.101562 169.441406 35.316406 170.4375 C 36.53125 171.4375 37.769531 172.402344 39.03125 173.339844 C 40.292969 174.273438 41.578125 175.179688 42.882812 176.054688 C 44.191406 176.925781 45.515625 177.769531 46.863281 178.578125 C 48.210938 179.386719 49.578125 180.160156 50.964844 180.902344 C 52.351562 181.640625 53.753906 182.347656 55.171875 183.023438 C 56.59375 183.695312 58.027344 184.332031 59.480469 184.933594 C 60.933594 185.535156 62.398438 186.101562 63.875 186.632812 C 65.355469 187.164062 66.847656 187.65625 68.351562 188.113281 C 69.855469 188.570312 71.367188 188.992188 72.890625 189.375 C 74.417969 189.757812 75.949219 190.105469 77.488281 190.410156 C 79.03125 190.71875 80.578125 190.988281 82.132812 191.222656 C 83.6875 191.453125 85.246094 191.648438 86.808594 191.804688 C 88.375 191.957031 89.941406 192.074219 91.511719 192.15625 C 93.078125 192.234375 94.648438 192.273438 96.222656 192.277344 Z M 96.222656 9.035156 C 97.648438 9.035156 99.074219 9.070312 100.5 9.140625 C 101.925781 9.210938 103.347656 9.316406 104.765625 9.457031 C 106.1875 9.597656 107.601562 9.769531 109.015625 9.980469 C 110.425781 10.1875 111.832031 10.433594 113.230469 10.710938 C 114.628906 10.988281 116.023438 11.300781 117.40625 11.648438 C 118.789062 11.996094 120.164062 12.375 121.53125 12.789062 C 122.894531 13.203125 124.25 13.652344 125.59375 14.132812 C 126.9375 14.613281 128.269531 15.125 129.585938 15.671875 C 130.90625 16.21875 132.207031 16.796875 133.5 17.40625 C 134.789062 18.015625 136.0625 18.660156 137.320312 19.332031 C 138.578125 20.003906 139.820312 20.707031 141.042969 21.441406 C 142.269531 22.175781 143.472656 22.9375 144.660156 23.730469 C 145.84375 24.523438 147.011719 25.34375 148.15625 26.195312 C 149.304688 27.042969 150.429688 27.921875 151.53125 28.828125 C 152.632812 29.730469 153.714844 30.664062 154.773438 31.621094 C 155.828125 32.578125 156.863281 33.5625 157.871094 34.574219 C 158.878906 35.582031 159.863281 36.613281 160.820312 37.671875 C 161.78125 38.730469 162.710938 39.808594 163.617188 40.910156 C 164.523438 42.015625 165.398438 43.140625 166.25 44.285156 C 167.097656 45.429688 167.921875 46.597656 168.714844 47.785156 C 169.507812 48.96875 170.269531 50.175781 171.003906 51.398438 C 171.738281 52.625 172.441406 53.863281 173.113281 55.121094 C 173.785156 56.382812 174.425781 57.65625 175.035156 58.945312 C 175.644531 60.234375 176.222656 61.539062 176.769531 62.855469 C 177.316406 64.175781 177.828125 65.507812 178.308594 66.851562 C 178.792969 68.191406 179.238281 69.546875 179.652344 70.914062 C 180.066406 72.277344 180.449219 73.652344 180.792969 75.039062 C 181.140625 76.421875 181.453125 77.8125 181.730469 79.210938 C 182.011719 80.613281 182.253906 82.015625 182.464844 83.429688 C 182.671875 84.839844 182.847656 86.257812 182.988281 87.675781 C 183.128906 89.097656 183.230469 90.519531 183.300781 91.945312 C 183.371094 93.367188 183.40625 94.792969 183.40625 96.222656 C 183.40625 97.648438 183.371094 99.074219 183.300781 100.5 C 183.230469 101.925781 183.128906 103.347656 182.988281 104.765625 C 182.847656 106.1875 182.671875 107.601562 182.464844 109.015625 C 182.253906 110.425781 182.011719 111.832031 181.730469 113.230469 C 181.453125 114.628906 181.140625 116.023438 180.792969 117.40625 C 180.449219 118.789062 180.066406 120.164062 179.652344 121.53125 C 179.238281 122.894531 178.792969 124.25 178.308594 125.59375 C 177.828125 126.9375 177.316406 128.269531 176.769531 129.585938 C 176.222656 130.90625 175.644531 132.207031 175.035156 133.5 C 174.425781 134.789062 173.785156 136.0625 173.113281 137.320312 C 172.441406 138.578125 171.738281 139.820312 171.003906 141.042969 C 170.269531 142.269531 169.507812 143.472656 168.714844 144.660156 C 167.921875 145.84375 167.097656 147.011719 166.25 148.15625 C 165.398438 149.304688 164.523438 150.429688 163.617188 151.53125 C 162.710938 152.632812 161.78125 153.714844 160.820312 154.773438 C 159.863281 155.828125 158.878906 156.863281 157.871094 157.871094 C 156.863281 158.878906 155.828125 159.863281 154.773438 160.820312 C 153.714844 161.78125 152.632812 162.710938 151.53125 163.617188 C 150.429688 164.523438 149.304688 165.398438 148.15625 166.25 C 147.011719 167.097656 145.84375 167.921875 144.660156 168.714844 C 143.472656 169.507812 142.269531 170.269531 141.042969 171.003906 C 139.820312 171.738281 138.578125 172.441406 137.320312 173.113281 C 136.0625 173.785156 134.789062 174.425781 133.5 175.035156 C 132.207031 175.644531 130.90625 176.222656 129.585938 176.769531 C 128.269531 177.316406 126.9375 177.828125 125.59375 178.308594 C 124.25 178.792969 122.894531 179.238281 121.53125 179.652344 C 120.164062 180.066406 118.789062 180.449219 117.40625 180.792969 C 116.023438 181.140625 114.628906 181.453125 113.230469 181.730469 C 111.832031 182.011719 110.425781 182.253906 109.015625 182.464844 C 107.601562 182.671875 106.1875 182.847656 104.765625 182.988281 C 103.347656 183.128906 101.925781 183.230469 100.5 183.300781 C 99.074219 183.371094 97.648438 183.40625 96.222656 183.40625 C 94.792969 183.40625 93.367188 183.371094 91.945312 183.300781 C 90.519531 183.230469 89.097656 183.128906 87.675781 182.988281 C 86.257812 182.847656 84.839844 182.671875 83.429688 182.464844 C 82.015625 182.253906 80.613281 182.011719 79.210938 181.730469 C 77.8125 181.453125 76.421875 181.140625 75.039062 180.792969 C 73.652344 180.449219 72.277344 180.066406 70.914062 179.652344 C 69.546875 179.238281 68.191406 178.792969 66.851562 178.308594 C 65.507812 177.828125 64.175781 177.316406 62.855469 176.769531 C 61.539062 176.222656 60.234375 175.644531 58.945312 175.035156 C 57.65625 174.425781 56.382812 173.785156 55.121094 173.113281 C 53.863281 172.441406 52.625 171.738281 51.398438 171.003906 C 50.175781 170.269531 48.96875 169.507812 47.785156 168.714844 C 46.597656 167.921875 45.429688 167.097656 44.285156 166.25 C 43.140625 165.398438 42.015625 164.523438 40.910156 163.617188 C 39.808594 162.710938 38.730469 161.78125 37.671875 160.820312 C 36.613281 159.863281 35.582031 158.878906 34.574219 157.871094 C 33.5625 156.863281 32.578125 155.828125 31.621094 154.773438 C 30.664062 153.714844 29.730469 152.632812 28.828125 151.53125 C 27.921875 150.429688 27.042969 149.304688 26.195312 148.15625 C 25.34375 147.011719 24.523438 145.84375 23.730469 144.660156 C 22.9375 143.472656 22.175781 142.269531 21.441406 141.042969 C 20.707031 139.820312 20.003906 138.578125 19.332031 137.320312 C 18.660156 136.0625 18.015625 134.789062 17.40625 133.5 C 16.796875 132.207031 16.21875 130.90625 15.671875 129.585938 C 15.125 128.269531 14.613281 126.9375 14.132812 125.59375 C 13.652344 124.25 13.203125 122.894531 12.789062 121.53125 C 12.375 120.164062 11.996094 118.789062 11.648438 117.40625 C 11.300781 116.023438 10.988281 114.628906 10.710938 113.230469 C 10.433594 111.832031 10.1875 110.425781 9.980469 109.015625 C 9.769531 107.601562 9.597656 106.1875 9.457031 104.765625 C 9.316406 103.347656 9.210938 101.925781 9.140625 100.5 C 9.070312 99.074219 9.035156 97.648438 9.035156 96.222656 C 9.039062 94.796875 9.074219 93.371094 9.144531 91.945312 C 9.21875 90.519531 9.324219 89.097656 9.464844 87.679688 C 9.605469 86.257812 9.78125 84.84375 9.992188 83.433594 C 10.203125 82.023438 10.449219 80.617188 10.726562 79.21875 C 11.007812 77.820312 11.320312 76.429688 11.667969 75.046875 C 12.015625 73.664062 12.398438 72.289062 12.8125 70.925781 C 13.226562 69.558594 13.675781 68.207031 14.15625 66.863281 C 14.636719 65.519531 15.152344 64.191406 15.699219 62.871094 C 16.246094 61.554688 16.824219 60.25 17.433594 58.960938 C 18.046875 57.671875 18.6875 56.398438 19.359375 55.140625 C 20.03125 53.882812 20.734375 52.644531 21.46875 51.421875 C 22.203125 50.199219 22.96875 48.992188 23.761719 47.808594 C 24.550781 46.621094 25.375 45.457031 26.222656 44.308594 C 27.074219 43.164062 27.953125 42.039062 28.855469 40.9375 C 29.761719 39.835938 30.691406 38.757812 31.652344 37.699219 C 32.609375 36.640625 33.59375 35.609375 34.601562 34.601562 C 35.609375 33.59375 36.640625 32.609375 37.699219 31.652344 C 38.757812 30.691406 39.835938 29.761719 40.9375 28.855469 C 42.039062 27.953125 43.164062 27.074219 44.308594 26.222656 C 45.457031 25.375 46.621094 24.550781 47.808594 23.761719 C 48.992188 22.96875 50.199219 22.203125 51.421875 21.46875 C 52.644531 20.734375 53.882812 20.03125 55.140625 19.359375 C 56.398438 18.6875 57.671875 18.046875 58.960938 17.433594 C 60.25 16.824219 61.554688 16.246094 62.871094 15.699219 C 64.191406 15.152344 65.519531 14.636719 66.863281 14.15625 C 68.207031 13.675781 69.558594 13.226562 70.925781 12.8125 C 72.289062 12.398438 73.664062 12.015625 75.046875 11.667969 C 76.429688 11.320312 77.820312 11.007812 79.21875 10.726562 C 80.617188 10.449219 82.023438 10.203125 83.433594 9.992188 C 84.84375 9.78125 86.257812 9.605469 87.679688 9.464844 C 89.097656 9.324219 90.519531 9.21875 91.945312 9.144531 C 93.371094 9.074219 94.796875 9.039062 96.222656 9.035156 Z M 96.222656 9.035156 " fill-opacity="1" fill-rule="nonzero"/><path fill="#984b67" d="M 63.503906 111.074219 C 63.710938 111.28125 63.933594 111.464844 64.175781 111.625 C 64.417969 111.789062 64.675781 111.925781 64.941406 112.035156 C 65.210938 112.148438 65.488281 112.230469 65.773438 112.289062 C 66.058594 112.34375 66.347656 112.375 66.640625 112.375 C 66.929688 112.375 67.21875 112.34375 67.503906 112.289062 C 67.789062 112.230469 68.066406 112.148438 68.335938 112.035156 C 68.605469 111.925781 68.859375 111.789062 69.101562 111.625 C 69.34375 111.464844 69.570312 111.28125 69.773438 111.074219 C 69.980469 110.867188 70.164062 110.644531 70.324219 110.402344 C 70.488281 110.160156 70.625 109.90625 70.734375 109.636719 C 70.847656 109.367188 70.929688 109.089844 70.988281 108.804688 C 71.042969 108.519531 71.074219 108.230469 71.074219 107.9375 C 71.074219 107.648438 71.042969 107.359375 70.988281 107.074219 C 70.929688 106.789062 70.847656 106.511719 70.734375 106.242188 C 70.625 105.972656 70.488281 105.71875 70.324219 105.476562 C 70.164062 105.234375 69.980469 105.011719 69.773438 104.804688 L 58.640625 93.667969 L 69.773438 82.535156 C 69.980469 82.328125 70.164062 82.105469 70.324219 81.863281 C 70.488281 81.621094 70.625 81.363281 70.734375 81.09375 C 70.847656 80.828125 70.929688 80.550781 70.988281 80.261719 C 71.042969 79.976562 71.074219 79.691406 71.074219 79.398438 C 71.074219 79.109375 71.042969 78.820312 70.988281 78.535156 C 70.929688 78.25 70.847656 77.972656 70.734375 77.703125 C 70.625 77.433594 70.488281 77.175781 70.324219 76.933594 C 70.164062 76.691406 69.980469 76.46875 69.773438 76.261719 C 69.570312 76.058594 69.34375 75.875 69.101562 75.710938 C 68.859375 75.550781 68.605469 75.414062 68.335938 75.300781 C 68.066406 75.191406 67.789062 75.105469 67.503906 75.050781 C 67.21875 74.992188 66.929688 74.964844 66.640625 74.964844 C 66.347656 74.964844 66.058594 74.992188 65.773438 75.050781 C 65.488281 75.105469 65.210938 75.191406 64.941406 75.300781 C 64.675781 75.414062 64.417969 75.550781 64.175781 75.710938 C 63.933594 75.875 63.710938 76.058594 63.503906 76.261719 L 49.234375 90.535156 C 49.027344 90.738281 48.84375 90.964844 48.683594 91.207031 C 48.519531 91.449219 48.382812 91.703125 48.273438 91.972656 C 48.160156 92.242188 48.078125 92.519531 48.019531 92.804688 C 47.964844 93.089844 47.933594 93.378906 47.933594 93.667969 C 47.933594 93.960938 47.964844 94.25 48.019531 94.535156 C 48.078125 94.820312 48.160156 95.097656 48.273438 95.367188 C 48.382812 95.632812 48.519531 95.890625 48.683594 96.132812 C 48.84375 96.375 49.027344 96.597656 49.234375 96.804688 Z M 63.503906 111.074219 " fill-opacity="1" fill-rule="nonzero"/><path fill="#984b67" d="M 120.910156 111.074219 C 121.113281 111.28125 121.339844 111.464844 121.582031 111.625 C 121.824219 111.789062 122.078125 111.925781 122.347656 112.035156 C 122.617188 112.148438 122.894531 112.230469 123.179688 112.289062 C 123.464844 112.34375 123.753906 112.375 124.042969 112.375 C 124.335938 112.375 124.625 112.34375 124.910156 112.289062 C 125.195312 112.230469 125.472656 112.148438 125.742188 112.035156 C 126.007812 111.925781 126.265625 111.789062 126.507812 111.625 C 126.75 111.464844 126.972656 111.28125 127.179688 111.074219 L 141.449219 96.804688 C 141.65625 96.597656 141.839844 96.375 142 96.132812 C 142.164062 95.890625 142.300781 95.636719 142.410156 95.367188 C 142.523438 95.097656 142.605469 94.820312 142.664062 94.535156 C 142.71875 94.25 142.75 93.960938 142.75 93.667969 C 142.75 93.378906 142.71875 93.089844 142.664062 92.804688 C 142.605469 92.519531 142.523438 92.242188 142.410156 91.972656 C 142.300781 91.703125 142.164062 91.449219 142 91.207031 C 141.839844 90.964844 141.65625 90.738281 141.449219 90.535156 L 127.179688 76.261719 C 126.972656 76.058594 126.75 75.875 126.507812 75.710938 C 126.265625 75.550781 126.007812 75.414062 125.742188 75.300781 C 125.472656 75.1875 125.195312 75.105469 124.910156 75.046875 C 124.621094 74.992188 124.335938 74.960938 124.042969 74.960938 C 123.75 74.960938 123.464844 74.992188 123.175781 75.046875 C 122.890625 75.105469 122.613281 75.1875 122.34375 75.300781 C 122.074219 75.410156 121.820312 75.546875 121.578125 75.710938 C 121.335938 75.871094 121.113281 76.054688 120.90625 76.261719 C 120.699219 76.46875 120.515625 76.691406 120.355469 76.933594 C 120.191406 77.175781 120.054688 77.429688 119.945312 77.699219 C 119.832031 77.96875 119.75 78.246094 119.691406 78.53125 C 119.636719 78.816406 119.605469 79.105469 119.609375 79.398438 C 119.609375 79.6875 119.636719 79.976562 119.691406 80.261719 C 119.75 80.550781 119.835938 80.828125 119.945312 81.09375 C 120.058594 81.363281 120.195312 81.621094 120.355469 81.863281 C 120.519531 82.105469 120.703125 82.328125 120.910156 82.535156 L 132.042969 93.667969 L 120.910156 104.804688 C 120.703125 105.011719 120.519531 105.234375 120.355469 105.476562 C 120.195312 105.71875 120.058594 105.972656 119.945312 106.242188 C 119.835938 106.511719 119.75 106.789062 119.695312 107.074219 C 119.636719 107.359375 119.609375 107.648438 119.609375 107.9375 C 119.609375 108.230469 119.636719 108.519531 119.695312 108.804688 C 119.75 109.089844 119.835938 109.367188 119.945312 109.636719 C 120.058594 109.90625 120.195312 110.160156 120.355469 110.402344 C 120.519531 110.644531 120.703125 110.867188 120.910156 111.074219 Z M 120.910156 111.074219 " fill-opacity="1" fill-rule="nonzero"/><path fill="#984b67" d="M 88.539062 126.074219 C 88.816406 126.15625 89.101562 126.210938 89.390625 126.238281 C 89.683594 126.261719 89.972656 126.261719 90.261719 126.226562 C 90.550781 126.195312 90.835938 126.136719 91.113281 126.050781 C 91.390625 125.960938 91.65625 125.847656 91.914062 125.707031 C 92.167969 125.570312 92.40625 125.40625 92.628906 125.21875 C 92.855469 125.03125 93.054688 124.824219 93.238281 124.59375 C 93.421875 124.367188 93.578125 124.125 93.710938 123.867188 C 93.847656 123.609375 93.953125 123.339844 94.035156 123.058594 L 109.445312 70.222656 C 109.527344 69.941406 109.582031 69.65625 109.605469 69.367188 C 109.632812 69.078125 109.628906 68.785156 109.597656 68.496094 C 109.566406 68.207031 109.503906 67.925781 109.417969 67.648438 C 109.332031 67.371094 109.21875 67.101562 109.078125 66.847656 C 108.9375 66.59375 108.773438 66.351562 108.585938 66.128906 C 108.398438 65.90625 108.191406 65.703125 107.964844 65.523438 C 107.738281 65.339844 107.496094 65.183594 107.238281 65.046875 C 106.980469 64.914062 106.710938 64.804688 106.429688 64.722656 C 106.152344 64.640625 105.867188 64.589844 105.574219 64.5625 C 105.285156 64.539062 104.996094 64.542969 104.707031 64.574219 C 104.417969 64.605469 104.132812 64.664062 103.855469 64.75 C 103.578125 64.839844 103.3125 64.953125 103.058594 65.09375 C 102.800781 65.234375 102.5625 65.398438 102.339844 65.582031 C 102.117188 65.769531 101.914062 65.976562 101.730469 66.203125 C 101.550781 66.433594 101.390625 66.675781 101.257812 66.933594 C 101.121094 67.191406 101.015625 67.460938 100.933594 67.738281 L 85.523438 120.578125 C 85.441406 120.855469 85.386719 121.140625 85.363281 121.429688 C 85.335938 121.722656 85.339844 122.011719 85.371094 122.300781 C 85.402344 122.589844 85.460938 122.875 85.550781 123.152344 C 85.636719 123.429688 85.75 123.695312 85.890625 123.949219 C 86.03125 124.207031 86.195312 124.445312 86.382812 124.667969 C 86.570312 124.890625 86.777344 125.09375 87.003906 125.277344 C 87.230469 125.457031 87.472656 125.617188 87.730469 125.75 C 87.988281 125.886719 88.257812 125.992188 88.539062 126.074219 Z M 88.539062 126.074219 " fill-opacity="1" fill-rule="nonzero"/></svg>