<svg xmlns="http://www.w3.org/2000/svg" xmlns:xlink="http://www.w3.org/1999/xlink" width="96" zoomAndPan="magnify" viewBox="0 0 72 72" height="96" preserveAspectRatio="xMidYMid meet" version="1.0"><path fill="#f6f6f6" d="M 36 0 C 16.117188 0 0 16.117188 0 36 C 0 55.882812 16.117188 72 36 72 C 55.882812 72 72 55.882812 72 36 C 72 16.117188 55.882812 0 36 0 Z M 42.875 57.21875 C 41.773438 57.429688 41.382812 56.753906 41.382812 56.171875 C 41.382812 55.453125 41.410156 53.105469 41.410156 50.191406 C 41.410156 48.15625 40.714844 46.828125 39.9375 46.15625 C 44.773438 45.617188 49.851562 43.773438 49.851562 35.398438 C 49.851562 33.019531 49.015625 31.070312 47.621094 29.546875 C 47.84375 28.996094 48.589844 26.78125 47.40625 23.78125 C 47.40625 23.78125 45.585938 23.195312 41.441406 26.015625 C 39.703125 25.535156 37.847656 25.292969 36.003906 25.28125 C 34.15625 25.292969 32.300781 25.535156 30.566406 26.015625 C 26.421875 23.199219 24.597656 23.78125 24.597656 23.78125 C 23.417969 26.785156 24.164062 28.996094 24.386719 29.546875 C 22.996094 31.070312 22.152344 33.019531 22.152344 35.398438 C 22.152344 43.75 27.21875 45.621094 32.039062 46.171875 C 31.421875 46.714844 30.859375 47.675781 30.660156 49.082031 C 29.421875 49.640625 26.28125 50.601562 24.34375 47.273438 C 24.34375 47.273438 23.199219 45.179688 21.019531 45.023438 C 21.019531 45.023438 18.898438 44.996094 20.871094 46.351562 C 20.871094 46.351562 22.292969 47.019531 23.28125 49.539062 C 23.28125 49.539062 24.554688 53.78125 30.597656 52.460938 C 30.605469 54.28125 30.625 55.652344 30.625 56.171875 C 30.625 56.746094 30.230469 57.421875 29.140625 57.222656 C 20.511719 54.339844 14.292969 46.171875 14.292969 36.539062 C 14.292969 24.496094 24.011719 14.742188 36.003906 14.742188 C 47.996094 14.742188 57.714844 24.5 57.714844 36.539062 C 57.714844 46.167969 51.5 54.332031 42.878906 57.21875 Z M 42.875 57.21875 " fill-opacity="1" fill-rule="nonzero"/></svg>