<svg xmlns="http://www.w3.org/2000/svg" xmlns:xlink="http://www.w3.org/1999/xlink" width="96" zoomAndPan="magnify" viewBox="0 0 72 72" height="96" preserveAspectRatio="xMidYMid meet" version="1.0"><defs><g/></defs><rect x="-7.2" width="86.4" fill="#ffffff" y="-7.2" height="86.4" fill-opacity="1"/><rect x="-7.2" width="86.4" fill="#ffffff" y="-7.2" height="86.4" fill-opacity="1"/><rect x="-7.2" width="86.4" fill="#ffffff" y="-7.2" height="86.4" fill-opacity="1"/><g fill="#192541" fill-opacity="1"><g transform="translate(0.0175781, 50.625)"><g><path d="M 13.15625 -32.125 L 19.640625 -32.125 L 19.640625 -9.890625 C 19.640625 -6.765625 18.769531 -4.257812 17.03125 -2.375 C 15.300781 -0.5 13.066406 0.4375 10.328125 0.4375 C 7.378906 0.4375 5.085938 -0.4375 3.453125 -2.1875 C 1.828125 -3.9375 1.015625 -6.367188 1.015625 -9.484375 L 7.53125 -9.484375 C 7.53125 -6.453125 8.460938 -4.9375 10.328125 -4.9375 C 12.210938 -4.9375 13.15625 -6.6875 13.15625 -10.1875 Z M 13.15625 -32.125 "/></g></g></g><g fill="#984b67" fill-opacity="1"><g transform="translate(22.148437, 50.625)"><g><path d="M 19.171875 -13.90625 L 9.0625 -13.90625 L 9.0625 -5.390625 L 21.03125 -5.390625 L 21.03125 0 L 2.578125 0 L 2.578125 -32.125 L 20.984375 -32.125 L 20.984375 -26.71875 L 9.0625 -26.71875 L 9.0625 -19.125 L 19.171875 -19.125 Z M 19.171875 -13.90625 "/></g></g></g><g fill="#192541" fill-opacity="1"><g transform="translate(44.314451, 50.625)"><g><path d="M 25.046875 0 L 18.5625 0 L 9.0625 -21.078125 L 9.0625 0 L 2.578125 0 L 2.578125 -32.125 L 9.0625 -32.125 L 18.578125 -11.03125 L 18.578125 -32.125 L 25.046875 -32.125 Z M 25.046875 0 "/></g></g></g></svg>