<svg xmlns="http://www.w3.org/2000/svg" xmlns:xlink="http://www.w3.org/1999/xlink" width="96" zoomAndPan="magnify" viewBox="0 0 72 72" height="96" preserveAspectRatio="xMidYMid meet" version="1.0"><path fill="#f6f6f6" d="M 36 0 C 16.117188 0 0 16.117188 0 36 C 0 55.882812 16.117188 72 36 72 C 55.882812 72 72 55.882812 72 36 C 72 16.117188 55.882812 0 36 0 Z M 25.136719 53.648438 L 17.566406 53.648438 L 17.566406 29.671875 L 25.136719 29.671875 Z M 21.15625 26.671875 L 21.101562 26.671875 C 18.363281 26.671875 16.589844 24.839844 16.589844 22.515625 C 16.589844 20.1875 18.417969 18.351562 21.210938 18.351562 C 24.003906 18.351562 25.71875 20.140625 25.777344 22.511719 C 25.777344 24.832031 24.003906 26.671875 21.160156 26.671875 Z M 55.410156 53.648438 L 46.828125 53.648438 L 46.828125 41.238281 C 46.828125 37.992188 45.484375 35.773438 42.535156 35.773438 C 40.277344 35.773438 39.019531 37.269531 38.4375 38.710938 C 38.21875 39.230469 38.253906 39.949219 38.253906 40.667969 L 38.253906 53.644531 L 29.753906 53.644531 C 29.753906 53.644531 29.863281 31.664062 29.753906 29.667969 L 38.253906 29.667969 L 38.253906 33.429688 C 38.753906 31.785156 41.472656 29.4375 45.804688 29.4375 C 51.183594 29.4375 55.410156 32.886719 55.410156 40.3125 Z M 55.410156 53.648438 " fill-opacity="1" fill-rule="nonzero"/></svg>