<svg xmlns="http://www.w3.org/2000/svg" xmlns:xlink="http://www.w3.org/1999/xlink" width="500" zoomAndPan="magnify" viewBox="0 0 375 374.999991" height="500" preserveAspectRatio="xMidYMid meet" version="1.0"><defs><clipPath id="130a34df29"><path d="M 275 174 L 286 174 L 286 368.25 L 275 368.25 Z M 275 174 " clip-rule="nonzero"/></clipPath><clipPath id="6073ecabb6"><path d="M 275 358 L 375 358 L 375 368.25 L 275 368.25 Z M 275 358 " clip-rule="nonzero"/></clipPath><clipPath id="ef6d07b46e"><path d="M 365 174 L 375 174 L 375 368.25 L 365 368.25 Z M 365 174 " clip-rule="nonzero"/></clipPath><clipPath id="472cfdc298"><path d="M 0 358 L 100 358 L 100 368.25 L 0 368.25 Z M 0 358 " clip-rule="nonzero"/></clipPath><clipPath id="b55fa1cf66"><path d="M 143 345 L 192 345 L 192 368.25 L 143 368.25 Z M 143 345 " clip-rule="nonzero"/></clipPath><clipPath id="f0692b9e0d"><path d="M 105 345 L 154 345 L 154 368.25 L 105 368.25 Z M 105 345 " clip-rule="nonzero"/></clipPath><clipPath id="b4b401d136"><path d="M 263 352 L 280 352 L 280 368.25 L 263 368.25 Z M 263 352 " clip-rule="nonzero"/></clipPath><clipPath id="5cf57cc2fa"><path d="M 218 352 L 236 352 L 236 368.25 L 218 368.25 Z M 218 352 " clip-rule="nonzero"/></clipPath><clipPath id="81e89458c3"><path d="M 307 352 L 324 352 L 324 368.25 L 307 368.25 Z M 307 352 " clip-rule="nonzero"/></clipPath></defs><path fill="#b1d6e5" d="M 160.164062 135.867188 L 7.34375 135.867188 L 7.34375 25.300781 L 160.164062 25.300781 L 160.164062 135.867188 " fill-opacity="1" fill-rule="nonzero"/><path fill="#15151c" d="M 160.160156 126.695312 L 7.34375 126.695312 L 7.34375 29.316406 L 160.160156 29.316406 L 160.160156 126.695312 " fill-opacity="1" fill-rule="nonzero"/><path fill="#15151e" d="M 155.679688 123.625 L 11.824219 123.625 L 11.824219 38.644531 L 155.679688 38.644531 L 155.679688 123.625 " fill-opacity="1" fill-rule="nonzero"/><path fill="#ffffff" d="M 19.132812 38.644531 L 19.132812 123.625 L 20.300781 123.625 L 20.300781 38.644531 " fill-opacity="1" fill-rule="nonzero"/><path fill="#323660" d="M 155.679688 38.609375 L 11.824219 38.609375 L 11.824219 31.601562 L 155.679688 31.601562 L 155.679688 38.609375 " fill-opacity="1" fill-rule="nonzero"/><path fill="#ed3947" d="M 139.03125 35.105469 C 139.03125 36.417969 137.960938 37.488281 136.648438 37.488281 C 135.332031 37.488281 134.269531 36.417969 134.269531 35.105469 C 134.269531 33.792969 135.332031 32.726562 136.648438 32.726562 C 137.960938 32.726562 139.03125 33.792969 139.03125 35.105469 " fill-opacity="1" fill-rule="nonzero"/><path fill="#80cc28" d="M 145.296875 35.105469 C 145.296875 36.417969 144.230469 37.488281 142.917969 37.488281 C 141.601562 37.488281 140.539062 36.417969 140.539062 35.105469 C 140.539062 33.792969 141.601562 32.726562 142.917969 32.726562 C 144.230469 32.726562 145.296875 33.792969 145.296875 35.105469 " fill-opacity="1" fill-rule="nonzero"/><path fill="#ebb72e" d="M 151.507812 35.105469 C 151.507812 36.417969 150.441406 37.488281 149.128906 37.488281 C 147.8125 37.488281 146.746094 36.417969 146.746094 35.105469 C 146.746094 33.792969 147.8125 32.726562 149.128906 32.726562 C 150.441406 32.726562 151.507812 33.792969 151.507812 35.105469 " fill-opacity="1" fill-rule="nonzero"/><path fill="#ffffff" d="M 17.859375 41.894531 L 13.683594 41.894531 L 13.683594 40.621094 L 17.859375 40.621094 L 17.859375 41.894531 " fill-opacity="1" fill-rule="nonzero"/><path fill="#ffffff" d="M 17.859375 46.074219 L 13.683594 46.074219 L 13.683594 44.796875 L 17.859375 44.796875 L 17.859375 46.074219 " fill-opacity="1" fill-rule="nonzero"/><path fill="#ffffff" d="M 17.859375 50.253906 L 13.683594 50.253906 L 13.683594 48.976562 L 17.859375 48.976562 L 17.859375 50.253906 " fill-opacity="1" fill-rule="nonzero"/><path fill="#ffffff" d="M 17.859375 54.433594 L 13.683594 54.433594 L 13.683594 53.160156 L 17.859375 53.160156 L 17.859375 54.433594 " fill-opacity="1" fill-rule="nonzero"/><path fill="#ffffff" d="M 17.859375 58.613281 L 13.683594 58.613281 L 13.683594 57.335938 L 17.859375 57.335938 L 17.859375 58.613281 " fill-opacity="1" fill-rule="nonzero"/><path fill="#ffffff" d="M 17.859375 62.792969 L 13.683594 62.792969 L 13.683594 61.515625 L 17.859375 61.515625 L 17.859375 62.792969 " fill-opacity="1" fill-rule="nonzero"/><path fill="#ffffff" d="M 17.859375 66.972656 L 13.683594 66.972656 L 13.683594 65.695312 L 17.859375 65.695312 L 17.859375 66.972656 " fill-opacity="1" fill-rule="nonzero"/><path fill="#ffffff" d="M 17.859375 71.152344 L 13.683594 71.152344 L 13.683594 69.875 L 17.859375 69.875 L 17.859375 71.152344 " fill-opacity="1" fill-rule="nonzero"/><path fill="#ffffff" d="M 17.859375 75.328125 L 13.683594 75.328125 L 13.683594 74.054688 L 17.859375 74.054688 L 17.859375 75.328125 " fill-opacity="1" fill-rule="nonzero"/><path fill="#ffffff" d="M 17.859375 79.511719 L 13.683594 79.511719 L 13.683594 78.234375 L 17.859375 78.234375 L 17.859375 79.511719 " fill-opacity="1" fill-rule="nonzero"/><path fill="#ffffff" d="M 17.859375 83.6875 L 13.683594 83.6875 L 13.683594 82.414062 L 17.859375 82.414062 L 17.859375 83.6875 " fill-opacity="1" fill-rule="nonzero"/><path fill="#ffffff" d="M 17.859375 87.867188 L 13.683594 87.867188 L 13.683594 86.59375 L 17.859375 86.59375 L 17.859375 87.867188 " fill-opacity="1" fill-rule="nonzero"/><path fill="#ffffff" d="M 17.859375 92.050781 L 13.683594 92.050781 L 13.683594 90.773438 L 17.859375 90.773438 L 17.859375 92.050781 " fill-opacity="1" fill-rule="nonzero"/><path fill="#ffffff" d="M 17.859375 96.226562 L 13.683594 96.226562 L 13.683594 94.953125 L 17.859375 94.953125 L 17.859375 96.226562 " fill-opacity="1" fill-rule="nonzero"/><path fill="#ffffff" d="M 17.859375 100.40625 L 13.683594 100.40625 L 13.683594 99.128906 L 17.859375 99.128906 L 17.859375 100.40625 " fill-opacity="1" fill-rule="nonzero"/><path fill="#ffffff" d="M 17.859375 104.589844 L 13.683594 104.589844 L 13.683594 103.308594 L 17.859375 103.308594 L 17.859375 104.589844 " fill-opacity="1" fill-rule="nonzero"/><path fill="#ffffff" d="M 17.859375 108.765625 L 13.683594 108.765625 L 13.683594 107.488281 L 17.859375 107.488281 L 17.859375 108.765625 " fill-opacity="1" fill-rule="nonzero"/><path fill="#ffffff" d="M 17.859375 112.945312 L 13.683594 112.945312 L 13.683594 111.667969 L 17.859375 111.667969 L 17.859375 112.945312 " fill-opacity="1" fill-rule="nonzero"/><path fill="#ffffff" d="M 17.859375 117.128906 L 13.683594 117.128906 L 13.683594 115.847656 L 17.859375 115.847656 L 17.859375 117.128906 " fill-opacity="1" fill-rule="nonzero"/><path fill="#ffffff" d="M 17.859375 121.304688 L 13.683594 121.304688 L 13.683594 120.027344 L 17.859375 120.027344 L 17.859375 121.304688 " fill-opacity="1" fill-rule="nonzero"/><path fill="#ed3947" d="M 38.523438 41.894531 L 22.269531 41.894531 L 22.269531 40.621094 L 38.523438 40.621094 L 38.523438 41.894531 " fill-opacity="1" fill-rule="nonzero"/><path fill="#ed3947" d="M 55.417969 88.507812 L 39.167969 88.507812 L 39.167969 87.230469 L 55.417969 87.230469 L 55.417969 88.507812 " fill-opacity="1" fill-rule="nonzero"/><path fill="#ed3947" d="M 45.320312 83.6875 L 39.167969 83.6875 L 39.167969 82.414062 L 45.320312 82.414062 L 45.320312 83.6875 " fill-opacity="1" fill-rule="nonzero"/><path fill="#3bbec5" d="M 28.421875 46.074219 L 22.269531 46.074219 L 22.269531 44.796875 L 28.421875 44.796875 L 28.421875 46.074219 " fill-opacity="1" fill-rule="nonzero"/><path fill="#3bbec5" d="M 31.382812 50.253906 L 22.269531 50.253906 L 22.269531 48.976562 L 31.382812 48.976562 L 31.382812 50.253906 " fill-opacity="1" fill-rule="nonzero"/><path fill="#00adef" d="M 36.085938 50.253906 L 32.949219 50.253906 L 32.949219 48.976562 L 36.085938 48.976562 L 36.085938 50.253906 " fill-opacity="1" fill-rule="nonzero"/><path fill="#3bbec5" d="M 45.4375 92.050781 L 39.285156 92.050781 L 39.285156 90.773438 L 45.4375 90.773438 L 45.4375 92.050781 " fill-opacity="1" fill-rule="nonzero"/><path fill="#3bbec5" d="M 48.398438 96.226562 L 39.285156 96.226562 L 39.285156 94.953125 L 48.398438 94.953125 L 48.398438 96.226562 " fill-opacity="1" fill-rule="nonzero"/><path fill="#00adef" d="M 53.097656 96.226562 L 49.964844 96.226562 L 49.964844 94.953125 L 53.097656 94.953125 L 53.097656 96.226562 " fill-opacity="1" fill-rule="nonzero"/><path fill="#3bbec5" d="M 45.4375 114.398438 L 39.285156 114.398438 L 39.285156 113.121094 L 45.4375 113.121094 L 45.4375 114.398438 " fill-opacity="1" fill-rule="nonzero"/><path fill="#3bbec5" d="M 48.398438 118.574219 L 39.285156 118.574219 L 39.285156 117.296875 L 48.398438 117.296875 L 48.398438 118.574219 " fill-opacity="1" fill-rule="nonzero"/><path fill="#00adef" d="M 53.097656 118.574219 L 49.964844 118.574219 L 49.964844 117.296875 L 53.097656 117.296875 L 53.097656 118.574219 " fill-opacity="1" fill-rule="nonzero"/><path fill="#3bbec5" d="M 31.382812 71.152344 L 22.269531 71.152344 L 22.269531 69.875 L 31.382812 69.875 L 31.382812 71.152344 " fill-opacity="1" fill-rule="nonzero"/><path fill="#00adef" d="M 36.085938 71.152344 L 32.949219 71.152344 L 32.949219 69.875 L 36.085938 69.875 L 36.085938 71.152344 " fill-opacity="1" fill-rule="nonzero"/><path fill="#80cc28" d="M 45.023438 41.894531 L 40.84375 41.894531 L 40.84375 40.621094 L 45.023438 40.621094 L 45.023438 41.894531 " fill-opacity="1" fill-rule="nonzero"/><path fill="#80cc28" d="M 50.710938 76.609375 L 32.949219 76.609375 L 32.949219 75.328125 L 50.710938 75.328125 L 50.710938 76.609375 " fill-opacity="1" fill-rule="nonzero"/><path fill="#ffffff" d="M 51.234375 54.433594 L 32.949219 54.433594 L 32.949219 53.160156 L 51.234375 53.160156 L 51.234375 54.433594 " fill-opacity="1" fill-rule="nonzero"/><path fill="#ffffff" d="M 86.929688 54.433594 L 60.460938 54.433594 L 60.460938 53.160156 L 86.929688 53.160156 L 86.929688 54.433594 " fill-opacity="1" fill-rule="nonzero"/><path fill="#ffffff" d="M 57.671875 54.433594 L 52.972656 54.433594 L 52.972656 53.160156 L 57.671875 53.160156 L 57.671875 54.433594 " fill-opacity="1" fill-rule="nonzero"/><path fill="#ffffff" d="M 55.238281 62.15625 L 36.953125 62.15625 L 36.953125 60.875 L 55.238281 60.875 L 55.238281 62.15625 " fill-opacity="1" fill-rule="nonzero"/><path fill="#ffffff" d="M 90.933594 62.15625 L 64.464844 62.15625 L 64.464844 60.875 L 90.933594 60.875 L 90.933594 62.15625 " fill-opacity="1" fill-rule="nonzero"/><path fill="#ffffff" d="M 61.679688 62.15625 L 56.976562 62.15625 L 56.976562 60.875 L 61.679688 60.875 L 61.679688 62.15625 " fill-opacity="1" fill-rule="nonzero"/><path fill="#ffffff" d="M 48.621094 56.695312 L 36.953125 56.695312 L 36.953125 57.976562 L 48.621094 57.976562 L 48.621094 56.695312 " fill-opacity="1" fill-rule="nonzero"/><path fill="#ffffff" d="M 50.710938 56.695312 L 50.710938 57.976562 L 55.238281 57.976562 L 55.238281 56.695312 L 50.710938 56.695312 " fill-opacity="1" fill-rule="nonzero"/><path fill="#ffffff" d="M 73.695312 57.976562 L 64.464844 57.976562 L 64.464844 56.695312 L 73.695312 56.695312 L 73.695312 57.976562 " fill-opacity="1" fill-rule="nonzero"/><path fill="#ffffff" d="M 61.679688 57.976562 L 56.976562 57.976562 L 56.976562 56.695312 L 61.679688 56.695312 L 61.679688 57.976562 " fill-opacity="1" fill-rule="nonzero"/><path fill="#ffffff" d="M 63.769531 66.972656 L 36.953125 66.972656 L 36.953125 65.695312 L 63.769531 65.695312 L 63.769531 66.972656 " fill-opacity="1" fill-rule="nonzero"/><path fill="#ffffff" d="M 85.882812 66.972656 L 65.335938 66.972656 L 65.335938 65.695312 L 85.882812 65.695312 L 85.882812 66.972656 " fill-opacity="1" fill-rule="nonzero"/><path fill="#ffffff" d="M 86.929688 110.390625 L 86.929688 111.667969 L 90.875 111.667969 L 90.875 110.390625 L 86.929688 110.390625 " fill-opacity="1" fill-rule="nonzero"/><path fill="#ffffff" d="M 63.535156 101.539062 L 51.871094 101.539062 L 51.871094 102.820312 L 63.535156 102.820312 L 63.535156 101.539062 " fill-opacity="1" fill-rule="nonzero"/><path fill="#ffffff" d="M 65.628906 101.539062 L 65.628906 102.820312 L 70.15625 102.820312 L 70.15625 101.539062 L 65.628906 101.539062 " fill-opacity="1" fill-rule="nonzero"/><path fill="#ffffff" d="M 88.609375 102.820312 L 79.382812 102.820312 L 79.382812 101.539062 L 88.609375 101.539062 L 88.609375 102.820312 " fill-opacity="1" fill-rule="nonzero"/><path fill="#ffffff" d="M 76.597656 102.820312 L 71.894531 102.820312 L 71.894531 101.539062 L 76.597656 101.539062 L 76.597656 102.820312 " fill-opacity="1" fill-rule="nonzero"/><path fill="#ffffff" d="M 67.425781 106.214844 L 51.871094 106.214844 L 51.871094 107.488281 L 67.425781 107.488281 L 67.425781 106.214844 " fill-opacity="1" fill-rule="nonzero"/><path fill="#ffffff" d="M 69.050781 106.214844 L 69.050781 107.488281 L 90.875 107.488281 L 90.875 106.214844 L 69.050781 106.214844 " fill-opacity="1" fill-rule="nonzero"/><path fill="#ffffff" d="M 58.605469 110.390625 L 51.871094 110.390625 L 51.871094 111.667969 L 58.605469 111.667969 L 58.605469 110.390625 " fill-opacity="1" fill-rule="nonzero"/><path fill="#ffffff" d="M 60.578125 110.390625 L 60.578125 111.667969 L 67.425781 111.667969 L 67.425781 110.390625 L 60.578125 110.390625 " fill-opacity="1" fill-rule="nonzero"/><path fill="#ffffff" d="M 85.417969 110.390625 L 69.050781 110.390625 L 69.050781 111.667969 L 85.417969 111.667969 L 85.417969 110.390625 " fill-opacity="1" fill-rule="nonzero"/><path fill="#6097af" d="M 96.835938 154.230469 L 59.128906 154.230469 L 63.046875 135.867188 L 100.753906 135.867188 L 96.835938 154.230469 " fill-opacity="1" fill-rule="nonzero"/><path fill="#6097af" d="M 98.917969 163.777344 C 93.285156 163.003906 96.675781 154.230469 96.675781 154.230469 L 59.128906 154.230469 C 59.128906 154.230469 58.769531 156.078125 58.480469 157.710938 C 57.984375 160.558594 57.3125 163.777344 61.371094 163.777344 L 98.917969 163.777344 " fill-opacity="1" fill-rule="nonzero"/><path fill="#88b8cc" d="M 100.070312 154.230469 L 62.363281 154.230469 L 66.28125 135.867188 L 103.988281 135.867188 L 100.070312 154.230469 " fill-opacity="1" fill-rule="nonzero"/><path fill="#88b8cc" d="M 102.152344 163.777344 C 98.101562 162.875 100.070312 154.230469 100.070312 154.230469 L 62.363281 154.230469 C 62.363281 154.230469 61.796875 157.039062 61.457031 159.003906 C 60.90625 162.21875 61.78125 163.777344 64.605469 163.777344 L 102.152344 163.777344 " fill-opacity="1" fill-rule="nonzero"/><path fill="#6097af" d="M 114.863281 160.507812 L 60.746094 160.507812 L 61.988281 163.777344 L 114.863281 163.777344 C 115.628906 163.777344 116.25 163.046875 116.25 162.140625 C 116.25 161.238281 115.628906 160.507812 114.863281 160.507812 " fill-opacity="1" fill-rule="nonzero"/><path fill="#9dd6ec" d="M 114.863281 160.507812 L 79.289062 160.507812 C 80.058594 160.507812 80.675781 161.238281 80.675781 162.140625 C 80.675781 163.046875 80.058594 163.777344 79.289062 163.777344 L 114.863281 163.777344 C 115.628906 163.777344 116.25 163.046875 116.25 162.140625 C 116.25 161.238281 115.628906 160.507812 114.863281 160.507812 " fill-opacity="1" fill-rule="nonzero"/><path fill="#c77d5d" d="M 99.375 174.554688 L 375.007812 174.554688 L 375.007812 163.78125 L 99.375 163.78125 L 99.375 174.554688 " fill-opacity="1" fill-rule="nonzero"/><path fill="#a55c4a" d="M 99.375 174.554688 L -0.00390625 174.554688 L -0.00390625 163.777344 L 99.375 163.777344 L 99.375 174.554688 " fill-opacity="1" fill-rule="nonzero"/><g clip-path="url(#130a34df29)"><path fill="#1f2338" d="M 285.375 368.214844 L 275.628906 368.214844 L 275.628906 174.554688 L 285.375 174.554688 L 285.375 368.214844 " fill-opacity="1" fill-rule="nonzero"/></g><g clip-path="url(#6073ecabb6)"><path fill="#1f2338" d="M 275.628906 368.214844 L 275.628906 358.28125 L 375.007812 358.28125 L 375.007812 368.214844 L 275.628906 368.214844 " fill-opacity="1" fill-rule="nonzero"/></g><g clip-path="url(#ef6d07b46e)"><path fill="#1f2338" d="M 375.007812 368.214844 L 365.261719 368.214844 L 365.261719 174.554688 L 375.007812 174.554688 L 375.007812 368.214844 " fill-opacity="1" fill-rule="nonzero"/></g><path fill="#f78e8c" d="M 299.167969 119.683594 C 299.167969 119.683594 299.863281 147.773438 304.136719 162.167969 C 304.136719 162.167969 305.976562 182.488281 322.097656 174.160156 C 322.097656 174.160156 327.058594 169.167969 327.046875 121.183594 C 327.046875 121.183594 310.53125 106.019531 299.167969 119.683594 " fill-opacity="1" fill-rule="nonzero"/><path fill="#22377c" d="M 231.597656 159.03125 C 231.597656 161.652344 229.476562 163.777344 226.859375 163.777344 L 127.027344 163.777344 C 124.40625 163.777344 122.285156 161.652344 122.285156 159.03125 L 110.648438 95.660156 C 110.648438 93.039062 112.773438 90.914062 115.394531 90.914062 L 215.222656 90.914062 C 217.84375 90.914062 219.964844 93.039062 219.964844 95.660156 L 231.597656 159.03125 " fill-opacity="1" fill-rule="nonzero"/><path fill="#172657" d="M 226.039062 150.609375 C 226.039062 152.761719 224.296875 154.5 222.148438 154.5 L 129.652344 154.5 C 127.503906 154.5 125.761719 152.761719 125.761719 150.609375 L 116.210938 98.589844 C 116.210938 96.441406 117.953125 94.699219 120.101562 94.699219 L 212.597656 94.699219 C 214.746094 94.699219 216.488281 96.441406 216.488281 98.589844 L 226.039062 150.609375 " fill-opacity="1" fill-rule="nonzero"/><path fill="#111c41" d="M 121.910156 156.851562 L 282.78125 156.851562 C 282.78125 156.851562 287.390625 156.851562 289.1875 158.6875 L 293.738281 163.777344 L 123.488281 163.777344 L 121.910156 156.851562 " fill-opacity="1" fill-rule="nonzero"/><path fill="#2858b0" d="M 289.1875 158.6875 C 287.390625 156.851562 282.78125 156.851562 282.78125 156.851562 L 192.261719 156.851562 C 192.261719 156.851562 196.871094 156.851562 198.671875 158.6875 L 203.21875 163.777344 L 293.738281 163.777344 L 289.1875 158.6875 " fill-opacity="1" fill-rule="nonzero"/><path fill="#274495" d="M 262.949219 163.777344 L 238.25 163.777344 L 236.300781 160.3125 L 261.003906 160.3125 L 262.949219 163.777344 " fill-opacity="1" fill-rule="nonzero"/><path fill="#15151e" d="M 223.734375 152.789062 L 129.410156 152.789062 L 119.34375 100.726562 L 213.667969 100.726562 L 223.734375 152.789062 " fill-opacity="1" fill-rule="nonzero"/><path fill="#ffffff" d="M 123.605469 100.839844 L 133.671875 152.902344 L 134.820312 152.679688 L 124.75 100.617188 " fill-opacity="1" fill-rule="nonzero"/><path fill="#323660" d="M 213.660156 100.707031 L 119.339844 100.707031 L 118.507812 96.414062 L 212.832031 96.414062 L 213.660156 100.707031 " fill-opacity="1" fill-rule="nonzero"/><path fill="#ed3947" d="M 203.042969 98.558594 C 203.203125 99.363281 202.675781 100.015625 201.871094 100.015625 C 201.066406 100.015625 200.285156 99.363281 200.132812 98.558594 C 199.972656 97.753906 200.5 97.097656 201.304688 97.097656 C 202.109375 97.097656 202.894531 97.753906 203.042969 98.558594 " fill-opacity="1" fill-rule="nonzero"/><path fill="#80cc28" d="M 206.886719 98.558594 C 207.042969 99.363281 206.519531 100.015625 205.710938 100.015625 C 204.90625 100.015625 204.128906 99.363281 203.972656 98.558594 C 203.816406 97.753906 204.339844 97.097656 205.148438 97.097656 C 205.953125 97.097656 206.730469 97.753906 206.886719 98.558594 " fill-opacity="1" fill-rule="nonzero"/><path fill="#ebb72e" d="M 210.691406 98.558594 C 210.847656 99.363281 210.320312 100.015625 209.515625 100.015625 C 208.710938 100.015625 207.929688 99.363281 207.773438 98.558594 C 207.621094 97.753906 208.148438 97.097656 208.949219 97.097656 C 209.757812 97.097656 210.535156 97.753906 210.691406 98.558594 " fill-opacity="1" fill-rule="nonzero"/><path fill="#ffffff" d="M 123.425781 102.71875 L 120.867188 102.71875 L 120.714844 101.9375 L 123.273438 101.9375 L 123.425781 102.71875 " fill-opacity="1" fill-rule="nonzero"/><path fill="#ffffff" d="M 123.921875 105.277344 L 121.359375 105.277344 L 121.210938 104.496094 L 123.769531 104.496094 L 123.921875 105.277344 " fill-opacity="1" fill-rule="nonzero"/><path fill="#ffffff" d="M 124.417969 107.839844 L 121.855469 107.839844 L 121.707031 107.054688 L 124.265625 107.054688 L 124.417969 107.839844 " fill-opacity="1" fill-rule="nonzero"/><path fill="#ffffff" d="M 124.910156 110.402344 L 122.351562 110.402344 L 122.199219 109.617188 L 124.761719 109.617188 L 124.910156 110.402344 " fill-opacity="1" fill-rule="nonzero"/><path fill="#ffffff" d="M 125.40625 112.960938 L 122.847656 112.960938 L 122.695312 112.179688 L 125.257812 112.179688 L 125.40625 112.960938 " fill-opacity="1" fill-rule="nonzero"/><path fill="#ffffff" d="M 125.902344 115.523438 L 123.34375 115.523438 L 123.191406 114.738281 L 125.75 114.738281 L 125.902344 115.523438 " fill-opacity="1" fill-rule="nonzero"/><path fill="#ffffff" d="M 126.394531 118.082031 L 123.835938 118.082031 L 123.683594 117.296875 L 126.246094 117.296875 L 126.394531 118.082031 " fill-opacity="1" fill-rule="nonzero"/><path fill="#ffffff" d="M 126.894531 120.644531 L 124.332031 120.644531 L 124.179688 119.859375 L 126.742188 119.859375 L 126.894531 120.644531 " fill-opacity="1" fill-rule="nonzero"/><path fill="#ffffff" d="M 127.386719 123.203125 L 124.828125 123.203125 L 124.675781 122.417969 L 127.234375 122.417969 L 127.386719 123.203125 " fill-opacity="1" fill-rule="nonzero"/><path fill="#ffffff" d="M 127.882812 125.761719 L 125.320312 125.761719 L 125.171875 124.980469 L 127.730469 124.980469 L 127.882812 125.761719 " fill-opacity="1" fill-rule="nonzero"/><path fill="#ffffff" d="M 128.378906 128.324219 L 125.816406 128.324219 L 125.664062 127.542969 L 128.226562 127.542969 L 128.378906 128.324219 " fill-opacity="1" fill-rule="nonzero"/><path fill="#ffffff" d="M 128.871094 130.882812 L 126.3125 130.882812 L 126.160156 130.101562 L 128.722656 130.101562 L 128.871094 130.882812 " fill-opacity="1" fill-rule="nonzero"/><path fill="#ffffff" d="M 129.367188 133.445312 L 126.808594 133.445312 L 126.65625 132.664062 L 129.21875 132.664062 L 129.367188 133.445312 " fill-opacity="1" fill-rule="nonzero"/><path fill="#ffffff" d="M 129.863281 136.003906 L 127.300781 136.003906 L 127.152344 135.222656 L 129.710938 135.222656 L 129.863281 136.003906 " fill-opacity="1" fill-rule="nonzero"/><path fill="#ffffff" d="M 130.355469 138.566406 L 127.796875 138.566406 L 127.644531 137.785156 L 130.207031 137.785156 L 130.355469 138.566406 " fill-opacity="1" fill-rule="nonzero"/><path fill="#ffffff" d="M 130.855469 141.125 L 128.292969 141.125 L 128.140625 140.34375 L 130.703125 140.34375 L 130.855469 141.125 " fill-opacity="1" fill-rule="nonzero"/><path fill="#ffffff" d="M 131.347656 143.683594 L 128.789062 143.683594 L 128.636719 142.902344 L 131.195312 142.902344 L 131.347656 143.683594 " fill-opacity="1" fill-rule="nonzero"/><path fill="#ffffff" d="M 131.84375 146.246094 L 129.28125 146.246094 L 129.132812 145.464844 L 131.691406 145.464844 L 131.84375 146.246094 " fill-opacity="1" fill-rule="nonzero"/><path fill="#ffffff" d="M 132.335938 148.804688 L 129.777344 148.804688 L 129.628906 148.023438 L 132.1875 148.023438 L 132.335938 148.804688 " fill-opacity="1" fill-rule="nonzero"/><path fill="#ffffff" d="M 132.832031 151.367188 L 130.273438 151.367188 L 130.121094 150.585938 L 132.683594 150.585938 L 132.832031 151.367188 " fill-opacity="1" fill-rule="nonzero"/><path fill="#ed3947" d="M 136.085938 102.71875 L 126.125 102.71875 L 125.976562 101.9375 L 135.933594 101.9375 L 136.085938 102.71875 " fill-opacity="1" fill-rule="nonzero"/><path fill="#ed3947" d="M 151.957031 131.273438 L 142 131.273438 L 141.851562 130.492188 L 151.804688 130.492188 L 151.957031 131.273438 " fill-opacity="1" fill-rule="nonzero"/><path fill="#ed3947" d="M 145.199219 128.324219 L 141.429688 128.324219 L 141.277344 127.542969 L 145.050781 127.542969 L 145.199219 128.324219 " fill-opacity="1" fill-rule="nonzero"/><path fill="#3bbec5" d="M 130.390625 105.277344 L 126.621094 105.277344 L 126.472656 104.496094 L 130.242188 104.496094 L 130.390625 105.277344 " fill-opacity="1" fill-rule="nonzero"/><path fill="#3bbec5" d="M 132.699219 107.839844 L 127.117188 107.839844 L 126.96875 107.054688 L 132.550781 107.054688 L 132.699219 107.839844 " fill-opacity="1" fill-rule="nonzero"/><path fill="#ffffff" d="M 145.355469 110.402344 L 134.15625 110.402344 L 134.003906 109.617188 L 145.207031 109.617188 L 145.355469 110.402344 " fill-opacity="1" fill-rule="nonzero"/><path fill="#ffffff" d="M 167.222656 110.402344 L 151.011719 110.402344 L 150.859375 109.617188 L 167.074219 109.617188 L 167.222656 110.402344 " fill-opacity="1" fill-rule="nonzero"/><path fill="#ffffff" d="M 149.304688 110.402344 L 146.425781 110.402344 L 146.273438 109.617188 L 149.152344 109.617188 L 149.304688 110.402344 " fill-opacity="1" fill-rule="nonzero"/><path fill="#ffffff" d="M 148.726562 115.128906 L 137.523438 115.128906 L 137.371094 114.347656 L 148.574219 114.347656 L 148.726562 115.128906 " fill-opacity="1" fill-rule="nonzero"/><path fill="#ffffff" d="M 170.59375 115.128906 L 154.378906 115.128906 L 154.226562 114.347656 L 170.441406 114.347656 L 170.59375 115.128906 " fill-opacity="1" fill-rule="nonzero"/><path fill="#ffffff" d="M 152.671875 115.128906 L 149.792969 115.128906 L 149.640625 114.347656 L 152.519531 114.347656 L 152.671875 115.128906 " fill-opacity="1" fill-rule="nonzero"/><path fill="#ffffff" d="M 144.023438 111.785156 L 136.878906 111.785156 L 137.03125 112.570312 L 144.175781 112.570312 L 144.023438 111.785156 " fill-opacity="1" fill-rule="nonzero"/><path fill="#ffffff" d="M 145.304688 111.785156 L 145.457031 112.570312 L 148.230469 112.570312 L 148.078125 111.785156 L 145.304688 111.785156 " fill-opacity="1" fill-rule="nonzero"/><path fill="#ffffff" d="M 159.535156 112.570312 L 153.882812 112.570312 L 153.730469 111.785156 L 159.386719 111.785156 L 159.535156 112.570312 " fill-opacity="1" fill-rule="nonzero"/><path fill="#ffffff" d="M 152.175781 112.570312 L 149.292969 112.570312 L 149.144531 111.785156 L 152.023438 111.785156 L 152.175781 112.570312 " fill-opacity="1" fill-rule="nonzero"/><path fill="#ffffff" d="M 158.476562 139.257812 L 151.328125 139.257812 L 151.480469 140.042969 L 158.625 140.042969 L 158.476562 139.257812 " fill-opacity="1" fill-rule="nonzero"/><path fill="#ffffff" d="M 159.757812 139.257812 L 159.90625 140.042969 L 162.679688 140.042969 L 162.53125 139.257812 L 159.757812 139.257812 " fill-opacity="1" fill-rule="nonzero"/><path fill="#ffffff" d="M 173.988281 140.042969 L 168.335938 140.042969 L 168.183594 139.257812 L 173.835938 139.257812 L 173.988281 140.042969 " fill-opacity="1" fill-rule="nonzero"/><path fill="#ffffff" d="M 166.625 140.042969 L 163.746094 140.042969 L 163.597656 139.257812 L 166.476562 139.257812 L 166.625 140.042969 " fill-opacity="1" fill-rule="nonzero"/><path fill="#00adef" d="M 135.578125 107.839844 L 133.660156 107.839844 L 133.507812 107.054688 L 135.429688 107.054688 L 135.578125 107.839844 " fill-opacity="1" fill-rule="nonzero"/><path fill="#3bbec5" d="M 146.261719 133.445312 L 142.492188 133.445312 L 142.34375 132.664062 L 146.109375 132.664062 L 146.261719 133.445312 " fill-opacity="1" fill-rule="nonzero"/><path fill="#3bbec5" d="M 148.570312 136.003906 L 142.988281 136.003906 L 142.835938 135.222656 L 148.417969 135.222656 L 148.570312 136.003906 " fill-opacity="1" fill-rule="nonzero"/><path fill="#00adef" d="M 151.449219 136.003906 L 149.53125 136.003906 L 149.378906 135.222656 L 151.300781 135.222656 L 151.449219 136.003906 " fill-opacity="1" fill-rule="nonzero"/><path fill="#3bbec5" d="M 148.910156 147.136719 L 145.140625 147.136719 L 144.988281 146.355469 L 148.757812 146.355469 L 148.910156 147.136719 " fill-opacity="1" fill-rule="nonzero"/><path fill="#3bbec5" d="M 151.21875 149.695312 L 145.636719 149.695312 L 145.484375 148.914062 L 151.066406 148.914062 L 151.21875 149.695312 " fill-opacity="1" fill-rule="nonzero"/><path fill="#00adef" d="M 154.097656 149.695312 L 152.175781 149.695312 L 152.027344 148.914062 L 153.945312 148.914062 L 154.097656 149.695312 " fill-opacity="1" fill-rule="nonzero"/><path fill="#3bbec5" d="M 135.175781 120.644531 L 129.59375 120.644531 L 129.441406 119.859375 L 135.023438 119.859375 L 135.175781 120.644531 " fill-opacity="1" fill-rule="nonzero"/><path fill="#00adef" d="M 138.054688 120.644531 L 136.136719 120.644531 L 135.984375 119.859375 L 137.90625 119.859375 L 138.054688 120.644531 " fill-opacity="1" fill-rule="nonzero"/><path fill="#80cc28" d="M 140.066406 102.71875 L 137.507812 102.71875 L 137.355469 101.9375 L 139.914062 101.9375 L 140.066406 102.71875 " fill-opacity="1" fill-rule="nonzero"/><path fill="#80cc28" d="M 147.664062 123.984375 L 136.78125 123.984375 L 136.632812 123.203125 L 147.511719 123.203125 L 147.664062 123.984375 " fill-opacity="1" fill-rule="nonzero"/><path fill="#ffffff" d="M 154.523438 118.082031 L 138.09375 118.082031 L 137.941406 117.296875 L 154.371094 117.296875 L 154.523438 118.082031 " fill-opacity="1" fill-rule="nonzero"/><path fill="#ffffff" d="M 168.070312 118.082031 L 155.480469 118.082031 L 155.332031 117.296875 L 167.917969 117.296875 L 168.070312 118.082031 " fill-opacity="1" fill-rule="nonzero"/><path fill="#ffffff" d="M 161.410156 142.121094 L 151.882812 142.121094 L 152.03125 142.902344 L 161.5625 142.902344 L 161.410156 142.121094 " fill-opacity="1" fill-rule="nonzero"/><path fill="#ffffff" d="M 162.40625 142.121094 L 162.558594 142.902344 L 175.925781 142.902344 L 175.773438 142.121094 L 162.40625 142.121094 " fill-opacity="1" fill-rule="nonzero"/><path fill="#ffffff" d="M 156.5 144.683594 L 152.378906 144.683594 L 152.527344 145.464844 L 156.652344 145.464844 L 156.5 144.683594 " fill-opacity="1" fill-rule="nonzero"/><path fill="#ffffff" d="M 157.710938 144.683594 L 157.863281 145.464844 L 162.054688 145.464844 L 161.90625 144.683594 L 157.710938 144.683594 " fill-opacity="1" fill-rule="nonzero"/><path fill="#ffffff" d="M 173.851562 144.683594 L 174.003906 145.464844 L 176.421875 145.464844 L 176.269531 144.683594 L 173.851562 144.683594 " fill-opacity="1" fill-rule="nonzero"/><path fill="#ffffff" d="M 172.929688 144.683594 L 162.902344 144.683594 L 163.054688 145.464844 L 173.082031 145.464844 L 172.929688 144.683594 " fill-opacity="1" fill-rule="nonzero"/><path fill="#984b67" d="M 317.746094 125.253906 C 321.921875 124.1875 325.894531 122.65625 329.722656 120.808594 C 329.621094 120.027344 329.527344 119.242188 329.445312 118.460938 C 328.746094 112.050781 329.425781 105.082031 327.820312 98.78125 C 325.554688 89.867188 317.871094 67.269531 304.660156 81.421875 C 299.828125 86.597656 298.761719 93.988281 297.453125 100.4375 C 295.75 108.847656 294.65625 117.214844 294.039062 125.71875 C 301.890625 127.140625 309.949219 127.253906 317.746094 125.253906 " fill-opacity="1" fill-rule="nonzero"/><path fill="#1f2338" d="M 9.742188 364.558594 L -0.00390625 364.558594 L -0.00390625 174.554688 L 9.742188 174.554688 L 9.742188 364.558594 " fill-opacity="1" fill-rule="nonzero"/><g clip-path="url(#472cfdc298)"><path fill="#1f2338" d="M -0.00390625 368.214844 L -0.00390625 358.28125 L 99.375 358.28125 L 99.375 368.214844 L -0.00390625 368.214844 " fill-opacity="1" fill-rule="nonzero"/></g><path fill="#1f2338" d="M 99.375 364.558594 L 89.628906 364.558594 L 89.628906 174.554688 L 99.375 174.554688 L 99.375 364.558594 " fill-opacity="1" fill-rule="nonzero"/><path fill="#f78e8c" d="M 324.078125 121.441406 C 324.078125 121.441406 325.488281 139.753906 330.015625 154.070312 C 330.015625 154.070312 336.609375 179.589844 348.070312 159.132812 C 348.070312 159.132812 352.664062 144.957031 351.976562 122.4375 C 351.976562 122.4375 335.191406 107.574219 324.078125 121.441406 " fill-opacity="1" fill-rule="nonzero"/><path fill="#984b67" d="M 354.488281 130.875 C 356.101562 121.875 353.714844 107.550781 352.046875 98.558594 C 350.902344 92.371094 349.664062 88.328125 347.160156 82.511719 C 342.085938 70.726562 322.988281 72.800781 322.988281 72.800781 C 317.257812 78.835938 314.539062 94.453125 315.132812 103.371094 C 315.554688 109.652344 316.984375 127.273438 317.289062 134.792969 C 329 138.316406 344.585938 138.523438 354.488281 130.875 " fill-opacity="1" fill-rule="nonzero"/><path fill="#f78e8c" d="M 187.714844 347.613281 L 188.4375 324.335938 L 170.203125 324.335938 L 172.871094 345.53125 L 187.714844 347.613281 " fill-opacity="1" fill-rule="nonzero"/><g clip-path="url(#b55fa1cf66)"><path fill="#1c0c19" d="M 187.714844 347.613281 L 191.804688 368.214844 L 143.292969 368.214844 C 143.292969 368.214844 142.058594 365.058594 145.886719 362.394531 L 164.066406 354.078125 L 172.871094 345.53125 L 187.714844 347.613281 " fill-opacity="1" fill-rule="nonzero"/></g><path fill="#3e526e" d="M 172.03125 247.898438 L 161.449219 334.375 C 161.449219 334.375 175.433594 344.316406 189.984375 346.347656 L 217.40625 247.898438 L 172.03125 247.898438 " fill-opacity="1" fill-rule="nonzero"/><path fill="#f78e8c" d="M 198.058594 150.023438 C 196.464844 149.140625 191.902344 147.585938 189.929688 148.1875 C 188.332031 148.675781 185.289062 150.066406 183.714844 150.691406 C 180.609375 151.917969 177.847656 153.808594 175.113281 154.648438 C 170.199219 156.164062 167.246094 157.625 165.148438 158.609375 C 161.675781 160.246094 158.78125 163.074219 161.414062 163.660156 C 164.769531 164.410156 172.765625 163.882812 176.140625 164.089844 C 180.78125 164.386719 185.433594 164.015625 190.066406 164.304688 C 194.394531 164.574219 199.335938 164.71875 203.441406 163.882812 C 209.625 162.617188 209.878906 156.871094 205.046875 153.886719 C 200.527344 151.101562 205.046875 153.886719 198.058594 150.023438 " fill-opacity="1" fill-rule="nonzero"/><path fill="#f78e8c" d="M 149.792969 347.613281 L 156.316406 324.335938 L 138.082031 324.335938 L 134.949219 345.53125 L 149.792969 347.613281 " fill-opacity="1" fill-rule="nonzero"/><g clip-path="url(#f0692b9e0d)"><path fill="#251224" d="M 149.792969 347.613281 L 153.886719 368.214844 L 105.371094 368.214844 C 105.371094 368.214844 104.136719 365.058594 107.964844 362.394531 L 126.144531 354.078125 L 134.949219 345.53125 L 149.792969 347.613281 " fill-opacity="1" fill-rule="nonzero"/></g><path fill="#455c7c" d="M 152.0625 346.347656 L 204.75 249.121094 L 275.695312 249.121094 C 275.695312 249.121094 318.148438 255 330.414062 240.796875 C 330.414062 240.796875 341.140625 226.171875 334.363281 189.992188 L 259.898438 189.992188 L 256.542969 201.617188 L 188.179688 206.207031 C 167.976562 206.207031 164.027344 223.054688 164.027344 223.054688 L 123.527344 334.375 C 123.527344 334.375 137.511719 344.316406 152.0625 346.347656 " fill-opacity="1" fill-rule="nonzero"/><path fill="#f78e8c" d="M 299.761719 44.234375 C 294.535156 49.84375 286.839844 58.058594 279.550781 57.550781 C 272.515625 57.058594 270.453125 43.773438 268.929688 38.160156 C 268.46875 36.472656 268.140625 34.753906 267.953125 33.023438 C 267.710938 30.738281 267.191406 28.460938 266.882812 26.210938 L 266.859375 26.058594 C 266.765625 25.359375 266.691406 24.660156 266.652344 23.964844 C 266.632812 23.644531 266.625 23.320312 266.617188 23.003906 C 266.605469 20.6875 267.035156 18.410156 268.46875 16.1875 C 271.238281 11.890625 276.9375 8.699219 282.304688 8.359375 C 289.761719 7.878906 297.796875 12.800781 301.097656 18.871094 C 305.320312 26.644531 306.398438 37.125 299.761719 44.234375 " fill-opacity="1" fill-rule="nonzero"/><path fill="#f78e8c" d="M 284.101562 54.277344 L 285.8125 65.828125 L 309.707031 62.015625 L 306.015625 50.484375 C 306.015625 50.484375 300.09375 42.429688 284.101562 54.277344 " fill-opacity="1" fill-rule="nonzero"/><path fill="#39151d" d="M 277.15625 32.265625 C 279.851562 35.933594 277.5625 25.425781 281.714844 24.300781 C 284.65625 23.503906 286.800781 25.925781 287.839844 28.6875 C 289.253906 32.445312 285.0625 33.195312 285.011719 36.046875 C 284.976562 38.042969 288.722656 47.40625 289.347656 49.230469 C 291.367188 55.125 298.867188 55.683594 303.496094 52.753906 C 307.523438 50.210938 306.800781 47.996094 306.992188 46.578125 C 308.699219 34.285156 308.613281 34.265625 308.445312 22.476562 C 308.371094 17.257812 308.230469 13.140625 303.785156 9.351562 C 301.289062 7.226562 298.921875 7.730469 296.300781 6.242188 C 293.621094 4.726562 292.84375 2.417969 289.601562 1.621094 C 283.164062 0.0351562 280.632812 4.453125 275.109375 5.128906 C 271.371094 5.585938 264.378906 6.523438 261.609375 8.328125 C 257.828125 10.789062 255.410156 13.746094 257.296875 18.855469 C 259.117188 23.789062 271.253906 24.226562 277.15625 32.265625 " fill-opacity="1" fill-rule="nonzero"/><path fill="#f78e8c" d="M 287.457031 27.28125 C 289.03125 29.867188 289.019531 33.800781 286.832031 36.457031 C 283.863281 40.070312 280.675781 37.964844 279 35.109375 C 277.652344 32.804688 276.546875 28.15625 279.210938 25.582031 C 281.71875 23.15625 286.167969 25.15625 287.457031 27.28125 " fill-opacity="1" fill-rule="nonzero"/><path fill="#592630" d="M 280.8125 27.296875 C 280.503906 27.886719 280.378906 28.597656 280.378906 29.359375 C 280.378906 30.59375 280.710938 31.980469 281.355469 33.183594 C 282.003906 34.386719 282.988281 35.433594 284.347656 35.835938 C 284.660156 35.925781 284.980469 35.746094 285.074219 35.4375 C 285.164062 35.125 284.984375 34.800781 284.675781 34.710938 C 283.726562 34.4375 282.9375 33.652344 282.382812 32.628906 C 281.832031 31.613281 281.542969 30.378906 281.542969 29.359375 C 281.542969 28.726562 281.660156 28.183594 281.84375 27.84375 C 281.992188 27.558594 281.886719 27.203125 281.597656 27.054688 C 281.316406 26.902344 280.964844 27.011719 280.8125 27.296875 " fill-opacity="1" fill-rule="nonzero"/><path fill="#592630" d="M 284.28125 28.707031 C 283.71875 28.816406 283.058594 29.019531 282.445312 29.34375 C 281.839844 29.671875 281.253906 30.121094 280.953125 30.804688 C 280.820312 31.097656 280.953125 31.441406 281.246094 31.570312 C 281.542969 31.699219 281.890625 31.570312 282.019531 31.273438 C 282.152344 30.957031 282.515625 30.628906 282.996094 30.375 C 283.472656 30.121094 284.042969 29.941406 284.503906 29.851562 C 284.824219 29.789062 285.03125 29.484375 284.96875 29.164062 C 284.90625 28.851562 284.597656 28.644531 284.28125 28.707031 " fill-opacity="1" fill-rule="nonzero"/><path fill="#984b67" d="M 341.605469 76.804688 C 343.945312 80.402344 346.921875 81.332031 346.921875 88.675781 L 334.160156 185.644531 L 279.425781 185.644531 L 273.003906 139.222656 L 256.601562 120.464844 C 249.484375 94.605469 256.539062 85.585938 256.539062 85.585938 C 260.023438 83.269531 271.871094 74.757812 275.007812 72.105469 C 279.210938 68.554688 282.5 65.929688 285.070312 63.949219 C 287.785156 61.863281 292.355469 62.015625 295.59375 61.351562 C 298.96875 60.664062 305.566406 59.300781 308.832031 59.28125 L 341.605469 76.804688 " fill-opacity="1" fill-rule="nonzero"/><path fill="#984b67" d="M 339.878906 217.085938 C 343.171875 209.355469 343.5625 185.109375 344.0625 169.273438 C 344.378906 159.203125 342.210938 144.773438 342.777344 135.386719 C 343.363281 125.726562 344.492188 115.765625 346.722656 106.457031 C 348.585938 98.660156 348.703125 80.777344 341.605469 76.800781 C 328.414062 69.414062 310.410156 85.628906 296.484375 91.285156 C 289.546875 94.105469 283.585938 98.1875 278.890625 103.726562 C 275.605469 107.605469 271.078125 113.285156 270.191406 118.390625 C 269.257812 123.792969 258.960938 127.132812 259.445312 132.667969 C 260.789062 147.976562 257.785156 157.992188 259.445312 179.746094 C 259.699219 183.03125 258.242188 186.691406 256.917969 189.601562 C 255.800781 192.042969 254.410156 194.371094 252.742188 196.472656 C 251.566406 197.960938 243.078125 201.152344 244.179688 202.445312 C 248.660156 207.714844 265.15625 208.933594 269.226562 209.121094 C 278.921875 209.570312 282.046875 218.652344 288.371094 224.960938 C 295.863281 232.441406 302.136719 229.363281 311.847656 228.796875 C 315.90625 228.558594 318.910156 227.496094 322.773438 227.691406 C 326.457031 227.875 330.449219 226.539062 334.234375 227.144531 " fill-opacity="1" fill-rule="nonzero"/><path fill="#f78e8c" d="M 232.988281 156.257812 C 226.304688 155.964844 219.632812 155.550781 212.949219 155.222656 C 206.894531 154.921875 200.742188 154.710938 194.71875 155.554688 C 196.167969 164.257812 211.613281 168.242188 218.453125 170.808594 C 225.953125 173.621094 232.652344 176.84375 240.308594 178.4375 C 248.71875 180.1875 255.679688 181.019531 260.9375 172.730469 C 263.460938 168.75 264.167969 165.007812 263.238281 161.875 C 253.960938 157.484375 243.253906 156.714844 232.988281 156.257812 " fill-opacity="1" fill-rule="nonzero"/><path fill="#f78e8c" d="M 244.082031 131.351562 C 244.082031 131.351562 242.191406 149.625 244.082031 164.515625 C 244.082031 164.515625 252.984375 173.957031 260.9375 172.730469 C 260.9375 172.730469 267.996094 159.609375 271.351562 137.332031 C 271.351562 137.332031 257.5 119.699219 244.082031 131.351562 " fill-opacity="1" fill-rule="nonzero"/><path fill="#984b67" d="M 275.546875 145.097656 C 278.746094 136.523438 281.84375 127.644531 281.820312 118.5 C 281.804688 112.207031 280.007812 105.640625 278.582031 99.472656 C 275.699219 86.96875 256.539062 85.585938 256.539062 85.585938 C 249.824219 90.496094 244.351562 105.371094 243.335938 114.253906 C 242.625 120.507812 241.519531 127.664062 240.46875 135.117188 C 251.367188 140.679688 263.355469 143.800781 275.546875 145.097656 " fill-opacity="1" fill-rule="nonzero"/><path fill="#1d1e32" d="M 284.542969 68.632812 C 294 68.628906 303.824219 68.394531 312.113281 64.199219 C 312.398438 64.050781 312.511719 63.703125 312.367188 63.414062 C 312.222656 63.125 311.871094 63.011719 311.582031 63.15625 C 303.628906 67.199219 293.984375 67.46875 284.542969 67.464844 C 284.222656 67.464844 283.960938 67.726562 283.960938 68.046875 C 283.960938 68.371094 284.222656 68.632812 284.542969 68.632812 " fill-opacity="1" fill-rule="nonzero"/><path fill="#1d1e32" d="M 261.519531 83.914062 C 264.339844 84.351562 267.460938 86.496094 269.988281 89.15625 C 272.527344 91.804688 274.480469 94.976562 275.097656 97.28125 C 275.976562 100.546875 276.324219 104.394531 276.324219 108.945312 C 276.324219 114.113281 275.875 120.1875 275.28125 127.320312 C 275.253906 127.640625 275.492188 127.925781 275.8125 127.953125 C 276.136719 127.976562 276.417969 127.738281 276.445312 127.417969 C 277.039062 120.277344 277.488281 114.183594 277.488281 108.945312 C 277.488281 104.335938 277.144531 100.390625 276.222656 96.976562 C 275.515625 94.371094 273.476562 91.128906 270.832031 88.351562 C 268.1875 85.585938 264.945312 83.285156 261.703125 82.761719 C 261.386719 82.710938 261.085938 82.929688 261.035156 83.246094 C 260.984375 83.5625 261.199219 83.863281 261.519531 83.914062 " fill-opacity="1" fill-rule="nonzero"/><path fill="#1d1e32" d="M 140.570312 336.191406 C 146.347656 321.722656 164.394531 280.824219 170.683594 266.621094 C 174.285156 258.484375 177.707031 250.402344 182.042969 242.722656 C 183.460938 240.210938 184.800781 237.128906 186.339844 234.238281 C 187.882812 231.351562 189.632812 228.667969 191.800781 226.953125 C 194.125 225.109375 197.195312 224.015625 200.425781 223.304688 C 203.660156 222.589844 207.042969 222.257812 209.992188 221.878906 C 216.765625 221.015625 224.332031 221.394531 231.414062 221.179688 C 242.09375 220.847656 250.5625 220.425781 259.527344 220.425781 C 264.628906 220.425781 269.894531 220.558594 275.828125 220.929688 C 276.148438 220.949219 276.429688 220.707031 276.445312 220.382812 C 276.46875 220.0625 276.222656 219.785156 275.902344 219.765625 C 269.945312 219.394531 264.652344 219.257812 259.527344 219.257812 C 250.523438 219.257812 242.042969 219.679688 231.378906 220.007812 C 224.359375 220.226562 216.765625 219.839844 209.847656 220.722656 C 206.917969 221.097656 203.496094 221.429688 200.171875 222.164062 C 196.855469 222.898438 193.621094 224.027344 191.074219 226.039062 C 188.6875 227.933594 186.882812 230.746094 185.3125 233.6875 C 183.742188 236.632812 182.402344 239.714844 181.027344 242.148438 C 176.644531 249.90625 173.214844 258.023438 169.617188 266.148438 C 163.324219 280.363281 145.285156 321.242188 139.488281 335.757812 C 139.367188 336.054688 139.511719 336.394531 139.8125 336.515625 C 140.113281 336.632812 140.453125 336.492188 140.570312 336.191406 " fill-opacity="1" fill-rule="nonzero"/><path fill="#1d1e32" d="M 176.988281 339.683594 C 186.132812 304.230469 188.757812 297.269531 195.289062 268.726562 C 195.359375 268.414062 195.164062 268.101562 194.847656 268.027344 C 194.53125 267.957031 194.21875 268.152344 194.148438 268.464844 C 187.628906 296.972656 185.007812 303.914062 175.855469 339.390625 C 175.773438 339.703125 175.964844 340.023438 176.277344 340.101562 C 176.585938 340.179688 176.90625 339.996094 176.988281 339.683594 " fill-opacity="1" fill-rule="nonzero"/><path fill="#1d1e32" d="M 277.160156 32.261719 L 267.089844 32.6875 L 267.089844 34.277344 L 278.097656 33.035156 L 277.160156 32.261719 " fill-opacity="1" fill-rule="nonzero"/><path fill="#1d1e32" d="M 267.121094 31.734375 C 266.488281 31.734375 265.902344 31.777344 265.335938 31.894531 C 264.910156 31.980469 264.492188 32.113281 264.089844 32.316406 C 263.492188 32.609375 262.925781 33.109375 262.578125 33.742188 C 262.226562 34.375 262.097656 35.070312 262.097656 35.742188 C 262.101562 36.570312 262.273438 37.398438 262.5625 38.316406 C 262.851562 39.230469 263.261719 40.234375 263.789062 41.371094 C 264.347656 42.535156 265.007812 43.992188 266.28125 45.183594 C 266.707031 45.574219 267.136719 45.917969 267.660156 46.179688 C 268.179688 46.445312 268.800781 46.585938 269.363281 46.578125 C 269.945312 46.578125 270.457031 46.464844 270.980469 46.332031 L 270.101562 42.941406 C 269.699219 43.046875 269.457031 43.078125 269.363281 43.074219 L 269.214844 43.042969 C 269.136719 43.007812 268.949219 42.882812 268.65625 42.609375 C 268.046875 42.070312 267.480469 41.015625 266.964844 39.886719 C 266.476562 38.84375 266.125 37.964844 265.902344 37.261719 C 265.679688 36.5625 265.597656 36.035156 265.601562 35.742188 C 265.601562 35.527344 265.636719 35.453125 265.636719 35.453125 L 265.578125 35.421875 L 265.621094 35.472656 L 265.636719 35.453125 L 265.578125 35.421875 L 265.621094 35.472656 C 265.621094 35.472656 265.703125 35.40625 265.953125 35.34375 C 266.203125 35.28125 266.601562 35.238281 267.121094 35.238281 L 267.121094 31.734375 " fill-opacity="1" fill-rule="nonzero"/><path fill="#22335a" d="M 363.695312 264.300781 C 363.695312 268.851562 360.007812 272.539062 355.457031 272.539062 L 212.445312 272.539062 C 207.890625 272.539062 204.203125 268.851562 204.203125 264.300781 L 204.203125 256.140625 C 204.203125 251.585938 207.890625 247.898438 212.445312 247.898438 L 355.457031 247.898438 C 360.007812 247.898438 363.695312 251.585938 363.695312 256.140625 L 363.695312 264.300781 " fill-opacity="1" fill-rule="nonzero"/><path fill="#192542" d="M 355.457031 247.898438 L 284.796875 247.898438 C 289.347656 247.898438 293.035156 251.585938 293.035156 256.140625 L 293.035156 264.300781 C 293.035156 268.851562 289.347656 272.539062 284.796875 272.539062 L 355.457031 272.539062 C 360.007812 272.539062 363.695312 268.851562 363.695312 264.300781 L 363.695312 256.140625 C 363.695312 251.585938 360.007812 247.898438 355.457031 247.898438 " fill-opacity="1" fill-rule="nonzero"/><path fill="#101729" d="M 327.136719 272.539062 L 314.960938 272.539062 L 314.960938 177.453125 L 327.136719 177.453125 L 327.136719 272.539062 " fill-opacity="1" fill-rule="nonzero"/><path fill="#192542" d="M 359.261719 162.484375 C 359.261719 170.746094 352.5625 177.453125 344.296875 177.453125 L 285.8125 177.453125 C 277.546875 177.453125 270.84375 170.746094 270.84375 162.484375 L 270.84375 131.15625 C 270.84375 122.890625 277.546875 116.1875 285.8125 116.1875 L 344.296875 116.1875 C 352.5625 116.1875 359.261719 122.890625 359.261719 131.15625 L 359.261719 162.484375 " fill-opacity="1" fill-rule="nonzero"/><path fill="#22335a" d="M 279.914062 162.707031 L 279.75 131.382812 C 279.710938 123.371094 285.972656 116.796875 293.882812 116.363281 L 293.882812 116.1875 L 285.8125 116.1875 C 277.542969 116.1875 270.84375 122.890625 270.84375 131.15625 L 270.84375 162.480469 C 270.84375 170.75 277.542969 177.453125 285.8125 177.453125 L 292.765625 177.453125 C 285.53125 176.425781 279.953125 170.230469 279.914062 162.707031 " fill-opacity="1" fill-rule="nonzero"/><path fill="#151b2f" d="M 277.0625 347.613281 L 265.644531 347.613281 L 265.644531 272.539062 L 277.0625 272.539062 L 277.0625 347.613281 " fill-opacity="1" fill-rule="nonzero"/><path fill="#1d2b4c" d="M 277.0625 347.613281 L 265.644531 347.613281 L 265.644531 331.460938 L 277.0625 331.460938 L 277.0625 347.613281 " fill-opacity="1" fill-rule="nonzero"/><g clip-path="url(#b4b401d136)"><path fill="#151b2f" d="M 279.539062 360.117188 C 279.539062 364.589844 275.914062 368.214844 271.441406 368.214844 C 266.96875 368.214844 263.34375 364.589844 263.34375 360.117188 C 263.34375 355.644531 266.96875 352.019531 271.441406 352.019531 C 275.914062 352.019531 279.539062 355.644531 279.539062 360.117188 " fill-opacity="1" fill-rule="nonzero"/></g><path fill="#497389" d="M 274.757812 360.117188 C 274.757812 361.945312 273.269531 363.433594 271.441406 363.433594 C 269.609375 363.433594 268.125 361.945312 268.125 360.117188 C 268.125 358.285156 269.609375 356.800781 271.441406 356.800781 C 273.269531 356.800781 274.757812 358.285156 274.757812 360.117188 " fill-opacity="1" fill-rule="nonzero"/><g clip-path="url(#5cf57cc2fa)"><path fill="#151b2f" d="M 235.1875 360.117188 C 235.1875 364.589844 231.5625 368.214844 227.085938 368.214844 C 222.617188 368.214844 218.992188 364.589844 218.992188 360.117188 C 218.992188 355.644531 222.617188 352.019531 227.085938 352.019531 C 231.5625 352.019531 235.1875 355.644531 235.1875 360.117188 " fill-opacity="1" fill-rule="nonzero"/></g><path fill="#497389" d="M 230.40625 360.117188 C 230.40625 361.945312 228.921875 363.433594 227.085938 363.433594 C 225.257812 363.433594 223.773438 361.945312 223.773438 360.117188 C 223.773438 358.285156 225.257812 356.800781 227.085938 356.800781 C 228.921875 356.800781 230.40625 358.285156 230.40625 360.117188 " fill-opacity="1" fill-rule="nonzero"/><g clip-path="url(#81e89458c3)"><path fill="#151b2f" d="M 323.890625 360.117188 C 323.890625 364.589844 320.265625 368.214844 315.789062 368.214844 C 311.320312 368.214844 307.691406 364.589844 307.691406 360.117188 C 307.691406 355.644531 311.320312 352.015625 315.789062 352.015625 C 320.265625 352.015625 323.890625 355.644531 323.890625 360.117188 " fill-opacity="1" fill-rule="nonzero"/></g><path fill="#497389" d="M 319.109375 360.117188 C 319.109375 361.945312 317.625 363.433594 315.789062 363.433594 C 313.957031 363.433594 312.472656 361.945312 312.472656 360.117188 C 312.472656 358.285156 313.957031 356.800781 315.789062 356.800781 C 317.625 356.800781 319.109375 358.285156 319.109375 360.117188 " fill-opacity="1" fill-rule="nonzero"/><path fill="#1d2b4c" d="M 320.882812 354.28125 C 319.101562 349.9375 314.054688 350.277344 314.054688 350.277344 L 275.054688 345.816406 L 267.828125 345.816406 L 228.824219 350.277344 C 228.824219 350.277344 223.78125 349.9375 221.996094 354.28125 L 320.882812 354.28125 " fill-opacity="1" fill-rule="nonzero"/></svg>