<svg xmlns="http://www.w3.org/2000/svg" xmlns:xlink="http://www.w3.org/1999/xlink" width="96" zoomAndPan="magnify" viewBox="0 0 72 72" height="96" preserveAspectRatio="xMidYMid meet" version="1.0"><path fill="#f6f6f6" d="M 36 0 C 16.117188 0 0 16.117188 0 36 C 0 55.882812 16.117188 72 36 72 C 55.882812 72 72 55.882812 72 36 C 72 16.117188 55.882812 0 36 0 Z M 52.09375 27.539062 C 52.105469 27.902344 52.113281 28.273438 52.113281 28.640625 C 52.113281 39.890625 43.765625 52.859375 28.492188 52.859375 C 23.808594 52.859375 19.445312 51.449219 15.769531 49.039062 C 16.414062 49.117188 17.078125 49.15625 17.746094 49.15625 C 21.636719 49.15625 25.21875 47.792969 28.058594 45.507812 C 24.425781 45.441406 21.363281 42.980469 20.304688 39.601562 C 20.8125 39.699219 21.332031 39.75 21.867188 39.75 C 22.621094 39.75 23.355469 39.652344 24.054688 39.453125 C 20.253906 38.675781 17.394531 35.234375 17.394531 31.109375 L 17.394531 31.003906 C 18.515625 31.636719 19.800781 32.023438 21.15625 32.066406 C 18.929688 30.539062 17.464844 27.933594 17.464844 24.980469 C 17.464844 23.421875 17.871094 21.957031 18.585938 20.695312 C 22.683594 25.851562 28.800781 29.234375 35.699219 29.59375 C 35.554688 28.96875 35.484375 28.320312 35.484375 27.652344 C 35.484375 22.949219 39.199219 19.140625 43.78125 19.140625 C 46.171875 19.140625 48.328125 20.175781 49.84375 21.828125 C 51.734375 21.445312 53.511719 20.738281 55.117188 19.765625 C 54.496094 21.75 53.179688 23.417969 51.464844 24.472656 C 53.144531 24.269531 54.746094 23.808594 56.230469 23.132812 C 55.125 24.839844 53.714844 26.335938 52.09375 27.539062 Z M 52.09375 27.539062 " fill-opacity="1" fill-rule="nonzero"/></svg>